<svg width="345" height="391" viewBox="0 0 345 391" fill="none" xmlns="http://www.w3.org/2000/svg">
<path d="M164.914 0L45.6421 196.379L97.5858 229.918L0 390.592L251.316 254.619L182.058 209.9L338.059 111.798L164.914 0Z" fill="#25F4E4"/>
<path d="M188 268.813C270.843 268.813 338 243.172 338 211.541C338 179.91 270.843 154.268 188 154.268C105.157 154.268 38 179.91 38 211.541C38 243.172 105.157 268.813 188 268.813Z" stroke="#61A8FB" stroke-width="14"/>
<path d="M138.401 240.177C179.822 311.921 235.607 357.26 263 341.445C290.393 325.629 279.021 254.648 237.6 182.904C196.179 111.161 140.393 65.8215 113 81.637C85.6072 97.4524 96.9793 168.433 138.401 240.177Z" stroke="#61A8FB" stroke-width="14"/>
<path d="M138.401 182.904C96.9793 254.648 85.6072 325.629 113 341.444C140.393 357.259 196.179 311.92 237.6 240.177C279.021 168.433 290.393 97.4518 263 81.6364C235.607 65.8209 179.822 111.16 138.401 182.904Z" stroke="#61A8FB" stroke-width="14"/>
</svg>
