<svg width="1261" height="237" viewBox="0 0 1261 237" fill="none" xmlns="http://www.w3.org/2000/svg">
<rect width="1261" height="237" fill="black"/>
<path d="M37.2564 201H86.2088C110.339 201 124.188 188.109 124.188 170.478C124.188 154.711 112.736 144.803 99.5256 144.217V143.152C111.511 140.648 119.927 131.966 119.927 119.501C119.927 103.042 107.249 91.9091 82.7464 91.9091H37.2564V201ZM63.6236 179.746V153.752H80.4027C90.4702 153.752 96.6492 159.079 96.6492 167.442C96.6492 175.165 91.3224 179.746 79.9233 179.746H63.6236ZM63.6236 136.76V112.843H78.6449C87.4339 112.843 93.027 117.371 93.027 124.615C93.027 132.286 86.848 136.76 78.2188 136.76H63.6236ZM162.913 91.9091H136.866V201H162.913V91.9091ZM202.557 202.385C213.957 202.385 221.84 197.964 226.314 189.601H226.954V201H251.456V145.389C251.456 128.077 236.062 118.116 215.235 118.116C193.236 118.116 180.771 129.196 178.694 144.111L202.717 144.963C203.836 139.743 208.15 136.547 215.022 136.547C221.414 136.547 225.462 139.636 225.462 145.123V145.389C225.462 150.396 220.029 151.462 206.073 152.687C189.507 154.072 175.657 160.197 175.657 178.308C175.657 194.501 186.897 202.385 202.557 202.385ZM210.601 185.339C204.581 185.339 200.32 182.463 200.32 177.03C200.32 171.756 204.475 168.56 211.879 167.442C216.726 166.749 222.692 165.684 225.622 164.139V171.916C225.622 179.906 218.91 185.339 210.601 185.339ZM267.596 201H337.856V180.759H301.421V180.226L336.577 135.482V119.182H268.928V139.423H305.523V139.956L267.596 186.138V201ZM390.59 202.545C412.057 202.545 426.172 192.158 429.155 176.071L405.238 175.379C403.214 180.812 397.888 183.741 391.069 183.741C381.055 183.741 374.876 177.083 374.876 167.069V166.376H429.422V159.878C429.422 132.925 413.015 118.116 389.791 118.116C365.075 118.116 349.202 135.055 349.202 160.411C349.202 186.618 364.862 202.545 390.59 202.545ZM374.876 151.249C375.249 143.099 381.694 136.92 390.324 136.92C398.9 136.92 405.079 142.886 405.185 151.249H374.876ZM501.692 124.615H526.94C526.727 104.214 510.481 90.4176 485.126 90.4176C460.197 90.4176 442.246 104.001 442.406 124.295C442.352 140.862 453.964 150.183 472.821 154.498L484.22 157.161C496.205 159.931 501.585 163.18 501.692 169.306C501.585 175.964 495.353 180.599 484.753 180.599C473.087 180.599 465.417 175.165 464.831 164.672H439.582C439.902 190.187 457.64 202.385 485.072 202.385C512.239 202.385 528.325 190.08 528.432 169.359C528.325 151.941 516.553 141.288 495.033 136.547L485.658 134.416C475.751 132.286 469.465 128.983 469.678 122.484C469.732 116.518 474.845 112.204 485.072 112.204C495.353 112.204 500.999 116.838 501.692 124.615ZM567.796 91.9091H541.749V201H567.796V91.9091ZM584.376 201H610.423V119.182H584.376V201ZM597.426 109.647C604.83 109.647 610.796 104.054 610.796 97.1825C610.796 90.3111 604.83 84.7713 597.426 84.7713C590.075 84.7713 584.056 90.3111 584.056 97.1825C584.056 104.054 590.075 109.647 597.426 109.647ZM656.885 202.172C669.243 202.172 676.594 195.3 679.897 187.737H680.696V201H706.477V91.9091H680.429V133.191H679.897C676.807 125.68 669.669 118.116 656.779 118.116C639.68 118.116 624.179 131.273 624.179 160.144C624.179 188.003 638.828 202.172 656.885 202.172ZM665.941 181.877C656.299 181.877 650.919 173.301 650.919 160.091C650.919 146.934 656.246 138.464 665.941 138.464C675.475 138.464 681.015 146.721 681.015 160.091C681.015 173.354 675.422 181.877 665.941 181.877ZM761.195 202.545C782.662 202.545 796.778 192.158 799.761 176.071L775.844 175.379C773.82 180.812 768.493 183.741 761.675 183.741C751.661 183.741 745.482 177.083 745.482 167.069V166.376H800.027V159.878C800.027 132.925 783.621 118.116 760.396 118.116C735.681 118.116 719.807 135.055 719.807 160.411C719.807 186.618 735.468 202.545 761.195 202.545ZM745.482 151.249C745.855 143.099 752.3 136.92 760.929 136.92C769.505 136.92 775.684 142.886 775.791 151.249H745.482ZM813.331 201H839.378V156.575C839.378 146.827 846.303 140.276 855.625 140.276C858.714 140.276 863.348 140.808 865.852 141.661V119.022C863.668 118.436 860.951 118.063 858.554 118.063C849.605 118.063 842.468 123.283 839.485 134.097H838.632V119.182H813.331V201ZM881.739 202.545C889.036 202.545 895.482 196.366 895.588 188.695C895.482 181.131 889.036 175.006 881.739 175.006C874.068 175.006 867.783 181.131 867.889 188.695C867.783 196.366 874.068 202.545 881.739 202.545Z" fill="white"/>
</svg>
