<svg width="1974" height="249" viewBox="0 0 1974 249" fill="none" xmlns="http://www.w3.org/2000/svg">
<path d="M0 12C0 7.02944 4.02944 3 9 3H1965C1969.97 3 1974 7.02944 1974 12V43H0V12Z" fill="#77B756"/>
<rect y="43" width="1974" height="40" fill="#F2BA4B"/>
<rect y="83" width="1974" height="40" fill="#E8873A"/>
<rect y="123" width="1974" height="40" fill="#CF4747"/>
<rect y="163" width="1974" height="40" fill="#8B4293"/>
<path d="M0 203H1974V234C1974 238.971 1969.97 243 1965 243H9.00002C4.02945 243 0 238.971 0 234V203Z" fill="#4599D5"/>
<g filter="url(#filter0_d_206_14)">
<path d="M244.861 129.506V177.418H266.107C276.297 177.418 283.415 175.684 287.462 172.215C291.581 168.746 293.641 162.712 293.641 154.112C293.641 145.368 291.509 139.081 287.245 135.251C282.981 131.421 275.936 129.506 266.107 129.506H244.861ZM244.861 66.418V104.032H266.107C274.201 104.032 279.946 102.587 283.343 99.6963C286.812 96.8057 288.546 92.0361 288.546 85.3877C288.546 78.7393 286.775 73.9336 283.234 70.9707C279.766 67.9355 274.057 66.418 266.107 66.418H244.861ZM213.968 40.9443H266.107C284.102 40.9443 297.615 44.377 306.648 51.2422C315.754 58.0352 320.307 68.2246 320.307 81.8105C320.307 92.2168 317.633 100.347 312.285 106.2C306.938 112.054 299.097 115.45 288.763 116.39C301.12 117.618 310.406 121.773 316.621 128.855C322.908 135.938 326.052 145.838 326.052 158.557C326.052 174.166 321.354 185.476 311.96 192.485C302.565 199.495 287.281 203 266.107 203H213.968V40.9443ZM358.571 203V41.1611H390.549V174.816H458.948V203H358.571ZM534.719 70.4287L519.651 136.66H549.895L534.719 70.4287ZM515.207 41.1611H554.339L598.023 203H566.046L556.073 163.001H513.256L503.5 203H471.522L515.207 41.1611ZM616.56 41.1611H726.042V67.6104L651.03 174.816H727.56V203H614.175V176.551L686.91 69.3447H616.56V41.1611ZM854.494 203H753.684V41.1611H854.494V69.3447H785.661V104.249H847.99V132.433H785.661V174.816H854.494V203ZM1058.28 131.999C1042.17 125.856 1031.26 119.425 1025.55 112.704C1019.84 105.911 1016.98 96.8057 1016.98 85.3877C1016.98 70.7178 1021.68 59.1914 1031.08 50.8086C1040.47 42.4258 1053.37 38.2344 1069.77 38.2344C1077.22 38.2344 1084.66 39.1016 1092.1 40.8359C1099.55 42.498 1106.92 44.9912 1114.22 48.3154V79.5342C1107.35 74.6924 1100.38 71.0068 1093.3 68.4775C1086.21 65.9482 1079.2 64.6836 1072.27 64.6836C1064.53 64.6836 1058.61 66.2373 1054.49 69.3447C1050.37 72.4521 1048.31 76.8965 1048.31 82.6777C1048.31 87.1582 1049.79 90.8799 1052.75 93.8428C1055.79 96.7334 1062.08 99.9492 1071.62 103.49L1085.38 108.693C1098.39 113.463 1107.97 119.786 1114.11 127.663C1120.25 135.54 1123.32 145.477 1123.32 157.473C1123.32 173.805 1118.48 186.018 1108.8 194.111C1099.19 202.133 1084.62 206.144 1065.11 206.144C1057.09 206.144 1049.03 205.168 1040.94 203.217C1032.92 201.338 1025.15 198.52 1017.63 194.762V161.7C1026.16 167.771 1034.4 172.287 1042.35 175.25C1050.37 178.213 1058.28 179.694 1066.09 179.694C1073.96 179.694 1080.07 177.924 1084.41 174.383C1088.74 170.77 1090.91 165.747 1090.91 159.315C1090.91 154.474 1089.47 150.246 1086.58 146.633C1083.68 142.947 1079.49 140.057 1074 137.961L1058.28 131.999ZM1161.15 203V41.1611H1193.13V174.816H1261.53V203H1161.15ZM1289.17 69.3447V41.1611H1385.54V69.3447H1353.34V174.816H1385.54V203H1289.17V174.816H1321.37V69.3447H1289.17ZM1451.12 69.9951V174.166H1459.79C1472.37 174.166 1481.33 170.228 1486.67 162.351C1492.02 154.401 1494.7 140.924 1494.7 121.918C1494.7 103.057 1492.02 89.6875 1486.67 81.8105C1481.33 73.9336 1472.37 69.9951 1459.79 69.9951H1451.12ZM1419.14 41.1611H1453.4C1479.84 41.1611 1498.89 47.4844 1510.52 60.1309C1522.16 72.7051 1527.97 93.3008 1527.97 121.918C1527.97 150.607 1522.16 171.312 1510.52 184.03C1498.89 196.677 1479.84 203 1453.4 203H1419.14V41.1611ZM1657.08 203H1556.27V41.1611H1657.08V69.3447H1588.24V104.249H1650.57V132.433H1588.24V174.816H1657.08V203ZM1759.3 126.579C1762.48 127.229 1765.22 128.747 1767.53 131.132C1769.92 133.444 1772.81 137.997 1776.21 144.79L1805.47 203H1770.35L1750.84 162.134C1750.26 160.978 1749.5 159.388 1748.56 157.364C1742.86 145.151 1736.13 139.045 1728.4 139.045H1718.21V203H1686.24V41.1611H1732.41C1753.23 41.1611 1768.15 44.8467 1777.18 52.2178C1786.29 59.5889 1790.84 71.585 1790.84 88.2061C1790.84 99.335 1788.13 108.188 1782.71 114.764C1777.29 121.34 1769.49 125.278 1759.3 126.579ZM1718.21 68.0439V112.162H1733.28C1742.02 112.162 1748.28 110.464 1752.03 107.067C1755.86 103.599 1757.78 97.9258 1757.78 90.0488C1757.78 82.1719 1755.9 76.5352 1752.14 73.1387C1748.38 69.7422 1742.1 68.0439 1733.28 68.0439H1718.21Z" fill="white"/>
</g>
<defs>
<filter id="filter0_d_206_14" x="170.968" y="0.234375" width="1671.51" height="247.909" filterUnits="userSpaceOnUse" color-interpolation-filters="sRGB">
<feFlood flood-opacity="0" result="BackgroundImageFix"/>
<feColorMatrix in="SourceAlpha" type="matrix" values="0 0 0 0 0 0 0 0 0 0 0 0 0 0 0 0 0 0 127 0" result="hardAlpha"/>
<feOffset dx="-3" dy="2"/>
<feGaussianBlur stdDeviation="20"/>
<feComposite in2="hardAlpha" operator="out"/>
<feColorMatrix type="matrix" values="0 0 0 0 0 0 0 0 0 0 0 0 0 0 0 0 0 0 0.15 0"/>
<feBlend mode="normal" in2="BackgroundImageFix" result="effect1_dropShadow_206_14"/>
<feBlend mode="normal" in="SourceGraphic" in2="effect1_dropShadow_206_14" result="shape"/>
</filter>
</defs>
</svg>
