<svg width="1360" height="299" viewBox="0 0 1360 299" fill="none" xmlns="http://www.w3.org/2000/svg">
<rect width="1360" height="299" fill="#3742FA"/>
<path d="M351 139H417C438.1 139 448.7 132.3 448.7 118.8V117.5C448.7 114.6 448.1 112 446.9 109.8C445.8 107.5 444.2 105.7 442.3 104.4C440.4 103.2 438.7 102.2 437.1 101.5C435.5 100.8 433.9 100.2 432.2 99.9C433.4 99.6 434.6 99.1 435.7 98.5C436.9 98 438.2 97.2 439.6 96.1C441.1 95.1 442.2 93.7 443.1 92C443.9 90.3 444.4 88.3 444.4 86.2V84.9C444.4 80.2 442.3 76.3 438 73.3C433.8 70.3 426.6 68.9 416.4 68.9H351V139ZM374.9 83.7H412.3C417.9 83.7 420.6 85.5 420.6 89.2V89.4C420.6 93.2 417.9 95.1 412.3 95.1H374.9V83.7ZM414.4 110C420.7 110 423.8 112.1 423.8 116.5V116.8C423.8 118.7 423.1 120.3 421.8 121.6C420.4 123 417.9 123.7 414.4 123.7H374.9V110H414.4ZM461.934 69.1V139.1H538.834V121.7H485.734V69.1H461.934ZM644.513 139H670.313L629.413 68.9H582.513L543.913 139H568.213L575.113 126.2H637.413L644.513 139ZM614.313 85L628.513 110.3H583.613L597.313 85H614.313ZM677.888 69.1V85.1H727.388L677.088 125.5V138.2H762.588V121.8H710.188L761.888 81.7V69.1H677.888ZM775.594 68.9V139H1002.99V122.7H799.194V111.2H1000.59V95.2H799.194V84.8H1001.99V68.9H775.594ZM393 230H531.2C538.6 230 545 229.6 550.5 228.7C556 227.8 560.4 226.6 563.5 225.2C566.7 223.7 569.3 221.9 571.2 219.8C573.1 217.7 574.4 215.6 575 213.5C575.6 211.5 575.9 209.2 575.9 206.6V205.3C575.9 198.3 572.7 193.1 566.4 189.8C560.1 186.6 549.8 184.8 535.6 184.5L528.4 184.4L391.6 184.3C386.7 184.3 382.9 183.9 380.2 183.3C377.5 182.7 375.8 182 375.1 181.2C374.3 180.5 374 179.5 374 178.3C374 177.1 374.3 176.1 375 175.4C375.6 174.6 377.5 173.9 380.5 173.3C383.6 172.6 387.2 172.3 393 172.3H527.7C531.5 172.3 533.6 172.5 536.5 173C539.3 173.4 541.4 173.9 542.9 174.5C544.3 175 545.5 175.8 546.4 176.6C547.3 177.5 547.8 178.2 548.1 178.7C548.3 179.3 548.5 179.9 548.6 180.7H573.4V179.7C573.4 177.5 573.1 175.4 572.3 173.4C571.6 171.4 570.2 169.4 568.2 167.4C566.1 165.4 563.5 163.7 560.4 162.3C557.2 161 552.9 159.8 547.6 158.9C542.3 158.1 536.1 157.6 529.1 157.6H390.9C384.2 157.6 378.3 158.1 373.3 158.9C368.2 159.7 364.2 160.8 361.2 162.1C358.2 163.5 355.8 165.1 354 167C352.1 168.9 350.9 170.8 350.3 172.7C349.7 174.6 349.4 176.7 349.4 179V179.8C349.4 192.9 361.8 199.7 386.6 200.3L392.2 200.4L530.9 200.6C536.6 200.7 540.9 201.1 543.9 201.8C546.9 202.4 548.8 203.2 549.6 204.1C550.5 205 550.9 206.2 550.9 207.7C550.9 208.7 550.6 209.7 550.2 210.4C549.7 211.2 548.7 212 547.3 212.7C545.9 213.5 543.6 214.1 540.4 214.5C537.3 214.9 535.2 215.1 530.5 215.1H393.8C379.2 215.1 373.8 211.4 373.3 204H348.4V205C348.4 207.2 348.6 209.3 349.1 211.2C349.6 213.2 350.8 215.4 352.6 217.8C354.4 220.2 356.9 222.2 359.9 223.9C363 225.6 367.4 227.1 373.1 228.3C378.7 229.5 385.4 230 393 230ZM585.277 160.1V230.1H662.177V212.7H609.077V160.1H585.277ZM693.157 160.2H669.357V230H693.157V160.2ZM705.199 159.9V230H755.899C764.499 230 772.099 229.3 778.599 227.8C785.199 226.4 790.399 224.6 794.299 222.4C798.099 220.2 801.199 217.5 803.699 214.3C806.099 211.2 807.699 208.2 808.499 205.2C809.399 202.3 809.799 199.2 809.799 195.9V193C809.799 190.2 809.499 187.6 808.799 185.1C808.199 182.6 807.099 180.1 805.699 177.5C804.199 174.9 802.099 172.6 799.399 170.6C796.699 168.5 793.399 166.7 789.499 165C785.699 163.3 780.899 162.1 775.099 161.2C769.399 160.3 762.899 159.9 755.799 159.9H705.199ZM729.099 176.4H753.999C774.499 176.4 784.699 182.4 784.699 194.5V195C784.699 207.1 774.499 213.1 753.999 213.1H729.099V176.4ZM818.773 159.9V230H900.373V213.7H842.373V202.2H897.973V186.2H842.373V175.8H899.273V159.9H818.773ZM934.761 205.3H965.961C971.761 205.3 975.861 206.2 978.261 208.2C980.661 210.1 981.861 213.2 981.861 217.6V225.7C981.861 227.7 981.861 230.1 981.861 230.1H1005.86C1005.86 230.1 1005.86 225.3 1005.86 221.1V210.8C1005.86 206.5 1004.56 203.1 1001.86 200.4C999.161 197.7 995.661 195.8 991.361 194.7C1000.86 191.9 1005.56 186.8 1005.56 179.4V178.3C1005.56 166.2 994.561 160.1 972.461 160.1H910.961V230.1H934.761V205.3ZM934.761 176H970.961C974.261 176 976.661 176.6 978.261 177.9C979.861 179.1 980.661 180.8 980.661 182.8V182.9C980.661 184.9 979.861 186.6 978.261 187.9C976.661 189.1 974.261 189.7 970.961 189.7H934.761V176Z" fill="white"/>
</svg>
