<svg xmlns="http://www.w3.org/2000/svg" viewBox="0 0 5120 5120">
  <g fill="rgb(33,21,194)">
    <g>
      <path
        d="M3548 1612 l-248 -247 0 -56 0 -56 227 -272 c205 -245 229 -271 257 -272 27 0 43 -15 126 -116 153 -185 223 -256 288 -291 199 -106 418 -75 578 83 122 121 171 296 129 460 -13 49 -14 64 -3 83 10 20 9 29 -13 68 -13 25 -44 67 -69 92 -47 49 -868 738 -904 759 -12 7 -43 12 -71 13 l-50 0 -247 -248z m719 -354 c215 -180 401 -341 412 -357 93 -130 80 -273 -34 -386 -117 -118 -262 -128 -392 -29 -19 14 -182 204 -364 421 l-331 396 148 148 c81 81 152 145 158 141 6 -3 187 -154 403 -334z"
      ></path>
    </g>
  </g>
  <g fill="rgb(0,126,168)">
    <g>
      <path
        d="M831 4204 c-71 -19 -110 -44 -165 -105 -81 -90 -81 -89 -81 -619 0 -425 2 -469 18 -518 27 -77 83 -142 158 -182 l64 -35 495 0 495 0 57 28 c72 35 140 110 168 184 20 54 21 70 18 537 l-3 481 -28 57 c-33 67 -90 121 -166 157 l-56 26 -460 2 c-380 2 -469 0 -514 -13z m906 -209 c48 -20 71 -41 94 -87 18 -35 19 -64 19 -428 0 -305 -3 -398 -14 -423 -17 -43 -78 -95 -118 -102 -18 -3 -207 -5 -419 -3 l-385 3 -41 27 c-77 51 -78 54 -81 476 -3 399 0 429 45 483 57 67 66 69 486 69 318 0 383 -2 414 -15z"
      ></path>
      <path
        d="M2458 4166 c-140 -38 -218 -164 -205 -331 6 -89 39 -158 98 -208 79 -68 64 -67 752 -67 432 0 631 3 657 11 61 18 131 78 162 138 25 48 28 63 28 155 0 120 -22 178 -88 238 -85 77 -44 73 -737 75 -479 2 -631 -1 -667 -11z m1229 -222 c46 -35 59 -65 43 -104 -7 -18 -27 -41 -44 -51 -29 -18 -61 -19 -579 -19 -590 0 -585 0 -621 52 -32 46 -10 98 59 136 14 8 179 11 567 9 538 -2 547 -2 575 -23z"
      ></path>
      <path
        d="M2442 3381 c-114 -40 -181 -132 -190 -264 -9 -138 42 -241 148 -301 l55 -31 650 0 650 0 54 30 c56 31 106 88 128 148 6 18 12 75 12 127 1 115 -21 172 -92 237 -80 74 -70 73 -756 73 -561 -1 -610 -2 -659 -19z m1239 -214 c18 -12 40 -35 49 -49 13 -25 13 -31 -4 -62 -36 -67 -24 -66 -626 -66 -460 0 -545 2 -570 15 -81 42 -78 127 5 169 26 14 103 16 571 16 l541 0 34 -23z"
      ></path>
      <path
        d="M2200 1627 c-85 -24 -161 -95 -189 -176 -6 -19 -11 -75 -11 -126 0 -78 4 -99 26 -143 51 -103 140 -152 274 -152 103 0 163 22 220 80 60 59 80 117 80 229 0 69 -5 96 -24 136 -26 56 -90 119 -144 142 -49 21 -176 26 -232 10z m149 -232 c16 -14 33 -34 36 -45 9 -27 -20 -77 -55 -95 -27 -14 -33 -14 -59 0 -34 17 -61 51 -61 77 0 27 59 88 85 88 13 0 37 -11 54 -25z"
      ></path>
    </g>
  </g>
  <g fill="rgb(109,0,202)">
    <g>
      <path
        d="M568 4860 c-211 -52 -395 -201 -488 -395 -80 -167 -74 -67 -77 -1397 -4 -1295 -7 -1221 51 -1163 20 20 35 25 76 25 l50 0 0 1128 c0 948 3 1137 15 1188 50 214 203 373 420 441 57 17 135 18 1645 18 l1585 0 72 -26 c103 -38 159 -73 234 -148 75 -75 110 -131 148 -234 l26 -72 3 -1147 3 -1148 105 0 105 0 -3 1183 -3 1182 -23 75 c-32 103 -93 216 -154 284 l-52 58 65 -6 c175 -18 280 -65 390 -175 87 -86 130 -162 160 -279 18 -72 19 -121 19 -1199 l0 -1123 46 0 c30 0 59 -8 81 -21 29 -18 37 -19 44 -8 12 19 11 2199 -1 2312 -33 320 -253 573 -562 647 -81 19 -121 20 -1993 19 -1840 0 -1913 -1 -1987 -19z"
      ></path>
      <path
        d="M3543 1617 c-230 -230 -243 -244 -243 -280 0 -42 24 -52 34 -14 8 32 487 507 511 507 11 -1 29 -6 41 -13 36 -21 857 -710 904 -759 25 -26 57 -69 72 -97 24 -47 27 -49 41 -33 13 14 13 22 3 47 -8 17 -20 38 -27 46 -8 8 -19 24 -25 34 -6 11 -23 21 -38 23 -19 3 -26 9 -26 26 0 25 -28 56 -51 56 -8 0 -19 10 -24 23 -6 12 -19 23 -30 25 -11 2 -25 13 -30 25 -6 12 -19 23 -30 25 -11 2 -25 13 -30 25 -6 12 -19 23 -30 25 -11 2 -25 13 -30 25 -6 13 -21 23 -37 25 -19 2 -28 9 -28 21 0 22 -19 41 -41 41 -9 0 -19 9 -22 20 -3 11 -13 20 -24 20 -10 0 -23 10 -28 23 -6 12 -19 23 -30 25 -11 2 -25 13 -30 25 -6 12 -19 23 -30 25 -11 2 -25 13 -30 25 -6 12 -19 23 -30 25 -11 2 -25 13 -30 25 -6 12 -19 23 -30 25 -11 2 -25 13 -30 25 -6 13 -21 23 -37 25 -19 2 -28 10 -30 25 -2 15 -11 23 -30 25 -19 2 -28 10 -30 25 -2 16 -11 23 -30 25 -19 2 -28 9 -28 22 0 23 -19 30 -88 30 l-57 0 -242 -243z"
      ></path>
      <path
        d="M3673 1478 l-172 -173 330 -395 c182 -217 334 -399 340 -405 5 -5 9 5 9 28 0 33 -3 37 -25 37 -21 0 -25 5 -25 30 0 25 -4 30 -25 30 -21 0 -25 5 -25 30 0 25 -4 30 -25 30 -21 0 -25 5 -25 30 0 25 -4 30 -25 30 -21 0 -25 5 -25 30 0 25 -4 30 -25 30 -21 0 -25 5 -25 30 0 25 -4 30 -25 30 -21 0 -25 5 -25 30 0 25 -4 30 -25 30 -21 0 -25 5 -25 30 0 25 -4 30 -25 30 -21 0 -25 5 -25 30 0 25 -4 30 -25 30 -21 0 -25 5 -25 30 0 25 -4 30 -25 30 -21 0 -25 5 -25 30 0 27 -3 30 -30 30 -28 0 -30 3 -30 35 0 31 -3 35 -25 35 -22 0 -25 4 -25 33 0 28 18 50 150 182 83 82 150 144 150 137 0 -7 13 -12 30 -12 25 0 30 -4 30 -25 0 -21 5 -25 30 -25 25 0 30 -4 30 -25 0 -21 5 -25 30 -25 25 0 30 -4 30 -25 0 -21 5 -25 29 -25 25 0 30 -4 33 -27 2 -23 8 -29 36 -31 26 -3 32 -7 32 -28 0 -20 5 -24 30 -24 25 0 30 -4 30 -25 0 -21 5 -25 30 -25 25 0 30 -4 30 -25 0 -21 5 -25 30 -25 25 0 30 -4 30 -25 0 -21 5 -25 30 -25 25 0 30 -4 30 -25 0 -21 5 -25 30 -25 25 0 30 -4 30 -25 0 -21 5 -25 30 -25 25 0 30 -4 30 -25 0 -21 5 -25 30 -25 25 0 30 -4 30 -25 0 -22 4 -25 35 -25 33 0 35 -2 35 -35 0 -19 5 -35 10 -35 6 0 10 -7 10 -15 0 -8 6 -15 14 -15 16 0 29 -63 29 -145 0 -82 -13 -145 -29 -145 -8 0 -14 -9 -14 -20 0 -11 -7 -20 -15 -20 -8 0 -15 -9 -15 -20 0 -13 -7 -20 -20 -20 -11 0 -20 -7 -20 -15 0 -8 -9 -15 -20 -15 -11 0 -20 -6 -20 -14 0 -16 -39 -24 -152 -32 -56 -5 -78 -10 -78 -20 0 -18 59 -28 123 -20 116 15 225 96 275 204 21 47 26 72 26 138 0 110 -38 190 -127 268 -159 139 -783 656 -792 656 -6 0 -88 -78 -182 -172z"
      ></path>
      <path
        d="M3342 1223 c2 -30 8 -39 25 -41 15 -2 23 -11 25 -30 2 -16 12 -31 25 -37 12 -5 23 -19 25 -30 2 -11 13 -24 26 -30 12 -5 22 -17 22 -25 0 -21 20 -40 41 -40 12 0 19 -9 21 -27 2 -20 9 -29 25 -31 15 -2 23 -11 25 -30 2 -19 10 -28 26 -30 16 -3 22 -10 22 -28 0 -15 6 -24 15 -24 8 0 15 -8 15 -18 0 -21 29 -52 48 -52 7 0 12 -9 12 -20 0 -16 7 -20 30 -20 17 0 30 2 30 5 0 8 -450 545 -456 545 -3 0 -4 -17 -2 -37z"
      ></path>
    </g>
  </g>
  <g fill="rgb(249,81,22)">
    <g>
      <path
        d="M2820 2571 c-137 -30 -281 -95 -350 -157 -22 -20 -54 -66 -72 -102 -32 -64 -33 -71 -33 -187 0 -109 2 -125 26 -175 15 -30 50 -81 78 -114 29 -32 79 -98 111 -146 121 -180 204 -260 353 -340 124 -67 365 -145 424 -138 l24 3 -25 34 c-36 49 -33 83 10 131 25 27 32 41 23 44 -8 2 -54 16 -104 31 -254 76 -372 161 -517 373 -39 57 -91 127 -116 155 -24 28 -54 71 -65 95 -17 39 -18 50 -8 84 24 80 132 150 297 193 135 35 272 26 399 -28 60 -25 167 -93 217 -139 92 -84 185 -234 224 -363 10 -33 19 -62 21 -64 1 -2 21 13 43 33 48 44 86 47 128 11 17 -14 33 -25 36 -25 28 0 -46 233 -110 347 -97 171 -230 297 -397 377 -133 64 -196 78 -377 82 -125 3 -171 0 -240 -15z"
      ></path>
      <path
        d="M1505 1631 c-90 -22 -171 -94 -199 -178 -18 -53 -21 -170 -6 -225 20 -71 70 -130 140 -166 63 -33 67 -34 165 -30 119 5 161 23 224 94 55 63 75 132 68 236 -9 132 -81 228 -199 263 -54 16 -141 18 -193 6z m133 -227 c31 -22 51 -65 42 -90 -9 -22 -65 -74 -81 -74 -24 0 -70 33 -84 61 -20 37 -13 61 26 94 35 29 65 32 97 9z"
      ></path>
    </g>
  </g>
  <g fill="rgb(255,153,0)">
    <g>
      <path
        d="M2890 2395 c-86 -17 -218 -69 -268 -104 -75 -55 -102 -161 -63 -247 10 -22 39 -63 64 -91 24 -28 76 -98 115 -155 148 -216 271 -303 547 -383 l89 -26 197 197 197 197 -14 51 c-38 132 -139 299 -232 384 -51 46 -157 114 -217 139 -118 50 -283 65 -415 38z"
      ></path>
      <path
        d="M1534 1441 c-18 -11 -39 -30 -48 -42 -20 -29 -21 -91 -1 -129 15 -30 61 -60 90 -60 26 0 16 34 -18 55 -63 40 -58 120 10 144 39 14 70 0 98 -43 21 -32 10 -106 -15 -106 -32 0 -50 -12 -50 -31 0 -30 36 -23 76 14 68 62 51 168 -31 203 -46 19 -74 18 -111 -5z"
      ></path>
    </g>
  </g>
  <g fill="rgb(226,7,185)">
    <g>
      <path
        d="M678 4733 c-33 -8 -20 -33 17 -33 28 0 35 4 35 20 0 20 -14 23 -52 13z"
      ></path>
      <path
        d="M3780 4721 c0 -13 6 -21 18 -21 9 0 41 -3 70 -6 43 -6 52 -4 52 9 0 15 -12 20 -97 32 -39 6 -43 5 -43 -14z"
      ></path>
      <path
        d="M413 4635 l-28 -24 38 -1 c33 0 37 3 37 25 0 31 -11 32 -47 0z"
      ></path>
      <path
        d="M339 4580 c-15 -11 -34 -31 -43 -45 -16 -25 -16 -25 14 -25 20 0 30 5 30 15 0 8 7 15 15 15 10 0 15 10 15 30 0 35 2 35 -31 10z"
      ></path>
      <path
        d="M4240 4445 c0 -31 3 -35 25 -35 30 0 30 3 8 41 -23 38 -33 37 -33 -6z"
      ></path>
      <path
        d="M227 4441 c-22 -38 -22 -41 8 -41 22 0 25 4 25 35 0 43 -10 44 -33 6z"
      ></path>
      <path
        d="M4310 4265 c0 -28 4 -35 20 -35 21 0 24 10 14 48 -10 36 -34 27 -34 -13z"
      ></path>
      <path
        d="M150 1975 c0 -11 -12 -15 -49 -15 -33 0 -56 -6 -72 -19 l-24 -19 1 -289 c0 -268 2 -294 23 -368 62 -220 201 -388 396 -481 157 -75 8 -69 1783 -72 l1594 -2 -24 28 c-12 16 -43 53 -67 83 l-44 54 -1496 5 c-1656 6 -1526 1 -1671 71 -89 44 -213 169 -258 262 -52 107 -62 169 -62 379 l0 188 1195 2 1195 3 -61 70 c-34 39 -68 85 -77 103 l-16 32 -1133 0 c-1000 0 -1133 -2 -1133 -15z"
      ></path>
      <path
        d="M3864 1973 c3 -10 18 -56 34 -103 l27 -85 203 -3 203 -2 -2 -162 -1 -161 202 -168 c111 -93 206 -171 211 -174 5 -4 9 8 9 24 0 28 -3 31 -30 31 -25 0 -30 4 -30 25 0 21 -5 25 -29 25 -25 0 -30 4 -33 28 -2 21 -9 28 -30 30 -20 2 -28 9 -28 24 0 12 -8 22 -21 25 -17 5 -20 11 -15 36 3 16 6 117 6 223 l0 194 200 0 200 0 0 -177 c0 -250 -29 -362 -122 -484 l-35 -45 34 -39 c18 -21 41 -55 50 -76 10 -21 21 -39 25 -39 13 0 98 111 132 174 19 33 47 102 62 151 26 88 27 95 28 383 l1 294 -24 19 c-16 13 -39 19 -72 19 -37 0 -49 4 -49 15 0 13 -32 15 -230 15 -198 0 -230 -2 -230 -15 0 -12 -15 -15 -75 -15 -60 0 -75 3 -75 15 0 13 -35 15 -251 15 -234 0 -250 -1 -245 -17z"
      ></path>
      <path
        d="M788 1627 c-85 -24 -155 -88 -189 -172 -7 -16 -12 -70 -12 -120 -1 -112 24 -177 90 -235 58 -51 117 -70 218 -70 72 0 90 4 144 31 111 56 156 143 149 291 -6 133 -49 204 -156 257 -54 28 -178 36 -244 18z m140 -223 c12 -8 29 -29 37 -45 14 -27 14 -32 -1 -58 -9 -16 -29 -36 -45 -45 -26 -15 -31 -15 -58 -1 -35 17 -61 51 -61 78 0 11 15 34 34 53 37 37 60 42 94 18z"
      ></path>
      <path
        d="M3308 1244 c6 -3 12 -12 12 -20 0 -9 11 -14 30 -14 26 0 29 3 21 18 -6 11 -22 18 -43 19 -18 1 -27 -1 -20 -3z"
      ></path>
    </g>
  </g>
  <g fill="rgb(255,214,0)">
    <g>
      <path
        d="M1529 1435 c-28 -15 -59 -70 -59 -105 0 -57 65 -120 125 -120 34 0 89 30 103 57 10 19 15 52 13 92 -1 12 -16 38 -35 57 -28 28 -41 34 -77 34 -24 -1 -56 -7 -70 -15z"
      ></path>
    </g>
  </g>
  <g fill="rgb(185,142,255)">
    <g>
      <path
        d="M650 4729 c-253 -37 -466 -258 -496 -513 -6 -53 -5 -56 15 -56 16 0 21 6 21 28 0 52 51 203 77 230 7 7 13 19 13 27 0 7 7 15 15 19 8 3 15 16 15 30 0 18 6 25 22 28 17 2 24 11 26 31 3 23 8 27 33 27 16 0 29 5 29 10 0 6 6 10 14 10 8 0 16 3 18 8 6 13 142 70 196 81 37 8 525 11 1610 11 1373 0 1565 -2 1617 -15 90 -24 207 -82 233 -117 7 -10 24 -18 38 -18 19 0 24 -5 24 -25 0 -14 9 -30 20 -37 11 -7 20 -18 20 -24 0 -5 8 -19 18 -30 23 -25 58 -106 77 -180 13 -50 15 -211 15 -1176 0 -1117 0 -1118 20 -1118 21 0 21 0 17 1143 -3 1266 2 1176 -69 1317 -45 89 -162 206 -249 249 -144 71 -1 65 -1754 67 -869 1 -1605 -2 -1635 -7z"
      ></path>
      <path
        d="M4296 4658 c90 -95 148 -195 186 -318 l23 -75 3 -1152 3 -1153 229 0 230 0 0 1123 c0 1078 -1 1127 -19 1199 -30 117 -73 193 -160 279 -124 123 -229 165 -446 176 l-130 6 81 -85z"
      ></path>
      <path
        d="M3922 1801 c4 -10 423 -361 432 -361 3 0 6 9 6 20 0 11 -6 20 -14 20 -8 0 -16 10 -18 23 -2 15 -11 23 -30 25 -19 2 -28 10 -30 25 -2 15 -11 23 -30 25 -19 2 -28 10 -30 25 -2 15 -11 23 -30 25 -19 2 -28 10 -30 25 -2 15 -11 23 -30 25 -19 2 -28 10 -30 25 -2 15 -11 23 -30 25 -19 2 -28 10 -30 25 -2 16 -11 23 -30 25 -16 2 -28 9 -28 18 0 8 -10 14 -26 14 -14 0 -24 -4 -22 -9z"
      ></path>
      <path
        d="M3842 1638 c-19 -19 -14 -28 12 -28 18 0 25 -6 28 -22 2 -16 11 -24 30 -26 19 -2 28 -10 30 -25 2 -15 11 -23 30 -25 19 -2 28 -10 30 -25 2 -15 11 -23 30 -25 19 -2 28 -10 30 -25 2 -17 11 -23 36 -25 26 -3 32 -7 32 -28 0 -20 5 -24 30 -24 25 0 30 -4 30 -25 0 -21 5 -25 29 -25 25 0 30 -4 33 -27 2 -22 9 -29 30 -31 19 -2 28 -10 30 -25 2 -15 11 -23 30 -25 19 -2 28 -10 30 -25 2 -15 11 -23 30 -25 19 -2 28 -10 30 -25 2 -15 11 -23 30 -25 19 -2 28 -10 30 -25 2 -15 11 -23 30 -25 19 -2 28 -10 30 -25 2 -16 11 -23 31 -25 17 -2 27 -9 27 -20 0 -21 53 -72 74 -72 10 0 16 -9 16 -22 0 -13 9 -47 20 -76 11 -29 20 -67 20 -85 0 -37 -40 -157 -52 -157 -4 0 -8 -8 -8 -19 0 -10 -9 -21 -21 -24 -11 -3 -23 -15 -26 -26 -3 -12 -14 -21 -24 -21 -11 0 -19 -4 -19 -9 0 -5 -11 -12 -25 -15 -14 -4 -25 -10 -25 -15 0 -5 -29 -12 -64 -16 -48 -5 -78 -3 -125 11 -33 10 -61 22 -61 26 0 4 -6 8 -14 8 -8 0 -16 7 -20 15 -3 8 -16 15 -30 15 -19 0 -25 6 -28 27 -2 20 -9 29 -25 31 -15 2 -23 11 -25 30 -2 19 -10 28 -25 30 -15 2 -23 11 -25 30 -2 19 -10 28 -25 30 -15 2 -23 11 -25 30 -2 19 -10 28 -25 30 -15 2 -23 11 -25 30 -2 19 -10 28 -25 30 -15 2 -23 11 -25 30 -2 19 -10 28 -25 30 -15 2 -23 11 -25 30 -2 19 -10 28 -25 30 -15 2 -23 11 -25 30 -2 19 -10 28 -25 30 -15 2 -23 11 -25 30 -2 21 -9 28 -30 30 -24 3 -28 8 -28 33 0 24 -4 29 -25 29 -21 0 -25 5 -25 30 0 25 -4 30 -24 30 -21 0 -25 6 -28 33 -2 24 -8 33 -25 35 -15 2 -23 11 -25 30 -2 23 -9 28 -37 30 -31 3 -32 2 -20 -15 56 -77 674 -805 698 -822 64 -46 122 -64 201 -64 43 0 94 8 118 17 93 34 175 116 208 208 19 53 21 161 4 214 -30 93 -61 124 -485 478 -227 191 -415 346 -417 346 -2 0 -9 -5 -16 -12z"
      ></path>
      <path
        d="M2175 1624 c-21 -8 -42 -18 -45 -22 -3 -5 -13 -11 -22 -15 -10 -3 -18 -15 -18 -26 0 -13 -8 -21 -22 -23 -19 -2 -24 -10 -26 -40 -4 -47 9 -48 39 -3 49 72 168 124 254 109 92 -15 172 -75 211 -159 40 -84 28 -199 -26 -276 l-21 -29 30 0 c20 0 31 5 31 14 0 8 5 16 11 18 15 5 39 103 39 163 0 59 -24 147 -45 169 -8 8 -15 19 -15 24 0 12 -44 52 -58 52 -7 0 -12 5 -12 10 0 6 -13 10 -30 10 -19 0 -30 5 -30 14 0 28 -174 36 -245 10z"
      ></path>
      <path
        d="M1994 1404 c-14 -96 18 -254 51 -254 8 0 15 -10 17 -22 2 -15 11 -24 26 -26 12 -2 22 -10 22 -18 0 -8 7 -14 15 -14 8 0 15 -4 15 -10 0 -5 11 -10 24 -10 13 0 26 -5 28 -11 4 -13 147 -17 201 -6 22 5 37 14 37 22 0 10 10 15 30 15 27 0 30 3 30 31 l0 30 -29 -21 c-138 -98 -332 -48 -406 105 -24 48 -27 64 -23 127 3 40 8 81 12 91 7 14 3 17 -17 17 -23 0 -27 -5 -33 -46z"
      ></path>
      <path
        d="M3330 1224 c0 -17 6 -24 19 -24 14 0 21 -8 23 -27 2 -20 9 -29 25 -31 15 -2 23 -11 25 -30 2 -19 10 -28 25 -30 15 -2 23 -11 25 -30 2 -19 10 -28 25 -30 15 -2 23 -11 25 -30 2 -16 12 -31 25 -37 12 -5 23 -19 25 -30 2 -11 13 -24 26 -30 12 -5 22 -18 22 -27 0 -13 8 -18 31 -18 17 0 29 4 27 8 -9 24 -316 381 -330 385 -14 4 -18 -1 -18 -19z"
      ></path>
    </g>
  </g>
  <g fill="rgb(255,99,237)">
    <g>
      <path
        d="M2530 1780 c0 -16 5 -30 10 -30 6 0 10 -7 10 -15 0 -8 5 -15 10 -15 6 0 10 -7 10 -15 0 -8 5 -15 10 -15 6 0 10 -7 10 -15 0 -8 5 -15 10 -15 6 0 10 -7 10 -15 0 -8 7 -15 15 -15 8 0 15 -9 15 -20 0 -11 6 -20 14 -20 8 0 16 -10 18 -22 2 -18 11 -24 37 -26 l35 -4 -27 34 c-15 18 -58 79 -97 136 -39 56 -75 102 -81 102 -5 0 -9 -13 -9 -30z"
      ></path>
      <path
        d="M4320 1635 c0 -164 1 -175 20 -185 20 -11 20 -8 20 175 0 178 -1 185 -20 185 -19 0 -20 -7 -20 -175z"
      ></path>
      <path
        d="M4510 1628 c0 -101 -3 -212 -6 -248 l-5 -65 97 -80 c54 -44 124 -105 157 -135 l60 -55 29 35 c44 53 96 166 113 245 10 48 15 134 15 278 l0 207 -230 0 -230 0 0 -182z"
      ></path>
      <path
        d="M765 1625 c-21 -9 -42 -19 -45 -23 -3 -5 -13 -11 -22 -15 -10 -3 -18 -16 -18 -27 0 -14 -7 -20 -21 -20 -12 0 -23 -8 -26 -20 -3 -11 -9 -20 -14 -20 -5 0 -16 -25 -25 -57 -28 -95 -8 -258 35 -293 3 -3 11 -14 17 -24 6 -11 19 -24 30 -30 10 -6 22 -16 27 -23 16 -26 101 -47 187 -47 71 0 95 4 143 26 48 23 57 31 57 52 0 21 5 26 26 26 21 0 30 9 52 58 22 47 27 71 27 142 0 84 -24 180 -46 180 -5 0 -9 6 -9 13 0 16 -42 57 -58 57 -7 0 -12 4 -12 8 0 40 -225 67 -305 37z m240 -47 c93 -47 145 -124 153 -229 8 -112 -47 -207 -149 -258 -184 -92 -392 38 -391 244 0 33 5 74 12 90 58 152 234 223 375 153z"
      ></path>
      <path
        d="M845 1446 c-92 -41 -107 -159 -26 -213 111 -75 241 50 171 165 -19 31 -72 63 -102 62 -7 -1 -26 -7 -43 -14z"
      ></path>
      <path
        d="M1520 1630 c0 -5 -16 -10 -35 -10 -19 0 -35 -4 -35 -10 0 -5 -9 -10 -20 -10 -16 0 -20 -7 -20 -31 l0 -30 28 19 c31 21 73 38 120 47 45 9 43 35 -3 35 -19 0 -35 -4 -35 -10z"
      ></path>
      <path
        d="M1600 1627 c0 -8 24 -20 58 -30 106 -29 182 -108 204 -213 13 -58 38 -61 38 -4 0 22 -4 40 -10 40 -5 0 -10 13 -10 29 0 16 -7 36 -15 45 -8 8 -15 19 -15 25 0 6 -13 11 -30 11 -27 0 -30 3 -30 30 0 20 -5 30 -15 30 -8 0 -15 4 -15 10 0 11 -93 40 -132 40 -17 0 -28 -5 -28 -13z"
      ></path>
      <path
        d="M1330 1490 c0 -19 -5 -30 -14 -30 -15 0 -26 -30 -26 -72 0 -43 25 -34 39 15 7 23 24 59 37 80 l24 37 -30 0 c-27 0 -30 -3 -30 -30z"
      ></path>
      <path
        d="M2780 1471 c0 -24 4 -31 20 -31 11 0 20 -7 20 -15 0 -10 10 -15 30 -15 23 0 30 -4 30 -20 0 -15 7 -20 25 -20 14 0 25 -6 25 -13 0 -18 43 -37 80 -37 20 0 30 -5 30 -15 0 -9 9 -15 25 -15 14 0 25 -4 25 -8 0 -11 69 -32 104 -32 14 0 26 -4 26 -8 0 -10 89 -32 126 -32 25 0 32 14 14 25 -6 4 -51 17 -100 30 -170 46 -321 116 -432 201 l-48 36 0 -31z"
      ></path>
      <path
        d="M150 1403 c1 -88 62 -245 125 -318 l34 -40 1 38 c0 26 -4 37 -15 37 -8 0 -15 9 -15 19 0 11 -7 26 -15 35 -8 8 -15 19 -15 25 0 6 -4 11 -10 11 -5 0 -10 8 -10 18 0 9 -9 46 -20 80 -11 35 -20 77 -20 93 0 22 -5 29 -20 29 -15 0 -20 -7 -20 -27z"
      ></path>
      <path
        d="M1857 1262 c-26 -95 -111 -176 -204 -197 -45 -9 -44 -35 2 -35 19 0 35 5 35 10 0 6 14 10 30 10 23 0 30 4 30 20 0 15 7 20 28 20 29 0 62 26 62 48 0 7 5 12 10 12 6 0 10 14 10 30 0 19 5 30 14 30 7 0 16 14 20 31 18 93 -12 110 -37 21z"
      ></path>
      <path
        d="M1290 1275 c0 -19 5 -35 10 -35 6 0 10 -13 10 -29 0 -16 7 -36 15 -45 8 -8 15 -19 15 -25 0 -6 11 -11 25 -11 20 0 25 -5 25 -25 0 -16 6 -25 15 -25 8 0 15 -4 15 -9 0 -13 75 -41 110 -41 39 0 40 26 2 34 -92 21 -179 108 -204 204 -13 52 -38 57 -38 7z"
      ></path>
      <path
        d="M375 984 c47 -42 141 -89 215 -109 75 -20 100 -19 100 3 0 14 -13 21 -55 29 -57 12 -177 62 -183 75 -2 4 -10 8 -17 8 -7 0 -15 7 -19 15 -3 10 -19 15 -43 15 l-38 -1 40 -35z"
      ></path>
      <path
        d="M700 876 c0 -7 10 -16 23 -20 12 -3 683 -6 1491 -6 1468 0 1469 0 1451 20 -18 20 -31 20 -1492 20 -1247 0 -1473 -2 -1473 -14z"
      ></path>
    </g>
  </g>
  <g fill="rgb(136,248,216)">
    <g>
      <path
        d="M875 4021 c-51 -23 -91 -70 -105 -121 -7 -26 -10 -181 -8 -442 3 -455 3 -455 81 -506 l41 -27 415 -3 c229 -2 431 0 449 3 40 7 101 59 118 102 11 25 14 122 14 453 0 393 -1 423 -19 458 -23 46 -46 67 -94 87 -31 13 -99 15 -444 15 -374 0 -411 -2 -448 -19z"
      ></path>
      <path
        d="M2505 3981 c-44 -27 -65 -54 -71 -93 -8 -47 18 -103 58 -128 32 -19 49 -20 611 -20 653 0 623 -3 658 76 16 36 18 50 10 82 -12 43 -42 75 -84 91 -19 7 -216 11 -590 11 -530 0 -564 -1 -592 -19z"
      ></path>
      <path
        d="M2501 3202 c-37 -20 -71 -73 -71 -110 0 -40 28 -91 62 -112 32 -19 49 -20 606 -20 632 0 619 -1 656 62 38 63 18 139 -47 178 -31 19 -55 20 -602 20 -533 0 -573 -1 -604 -18z"
      ></path>
      <path
        d="M2255 1450 c-30 -12 -64 -53 -75 -89 -28 -100 85 -185 180 -136 60 31 80 127 38 180 -35 45 -97 64 -143 45z"
      ></path>
    </g>
  </g>
  <g fill="rgb(164,188,255)">
    <g>
      <path
        d="M823 4209 c-18 -5 -33 -16 -33 -24 0 -10 -10 -15 -30 -15 -16 0 -30 -4 -30 -10 0 -5 -5 -10 -12 -10 -16 0 -68 -51 -68 -67 0 -7 -4 -13 -10 -13 -5 0 -10 -13 -10 -30 0 -19 -5 -30 -14 -30 -16 0 -36 -70 -36 -124 0 -50 27 -49 35 2 14 83 38 133 86 186 55 60 106 89 187 106 33 8 52 17 52 26 0 16 -65 18 -117 3z"
      ></path>
      <path
        d="M1710 4207 c0 -11 16 -19 54 -27 30 -6 79 -26 110 -45 l56 -34 0 30 c0 27 -6 33 -55 55 -70 32 -165 44 -165 21z"
      ></path>
      <path
        d="M2435 4164 c-21 -8 -42 -18 -45 -22 -3 -5 -13 -11 -22 -15 -10 -3 -18 -16 -18 -27 0 -14 -7 -20 -21 -20 -12 0 -23 -8 -26 -20 -3 -11 -9 -20 -13 -20 -12 0 -40 -89 -40 -127 0 -52 26 -42 40 17 25 105 110 188 216 210 35 7 54 16 54 26 0 19 -71 18 -125 -2z"
      ></path>
      <path
        d="M3650 4165 c0 -8 15 -17 38 -21 58 -11 99 -31 144 -72 91 -82 117 -225 60 -333 -31 -60 -101 -120 -162 -138 -26 -8 -218 -11 -627 -11 -655 0 -643 -1 -722 67 -45 38 -84 106 -95 166 -5 24 -12 37 -23 37 -13 0 -15 -9 -10 -53 6 -59 34 -127 53 -127 7 0 14 -10 16 -22 2 -15 11 -24 26 -26 12 -2 22 -10 22 -18 0 -8 7 -14 15 -14 8 0 15 -4 15 -8 0 -5 17 -15 38 -22 29 -11 159 -15 630 -17 561 -4 694 1 711 25 3 4 20 12 36 17 24 8 31 17 33 43 3 28 7 32 33 32 19 0 29 5 29 15 0 8 4 15 10 15 16 0 40 100 40 165 0 68 -22 156 -45 179 -8 8 -15 19 -15 24 0 12 -44 52 -58 52 -7 0 -12 5 -12 10 0 6 -9 10 -20 10 -11 0 -20 4 -20 10 0 12 -65 30 -107 30 -22 0 -33 -5 -33 -15z"
      ></path>
      <path
        d="M1976 4041 c52 -79 54 -99 54 -567 0 -411 -1 -436 -20 -488 -37 -99 -129 -181 -232 -207 -57 -14 -66 -39 -15 -39 40 0 127 28 127 41 0 5 7 9 15 9 8 0 15 5 15 10 0 6 6 10 13 10 16 0 57 41 57 57 0 6 6 13 14 16 8 3 25 32 37 64 23 57 24 65 27 486 3 416 -4 557 -28 565 -5 2 -10 15 -10 28 0 13 -4 24 -10 24 -5 0 -10 7 -10 15 0 10 -10 15 -30 15 l-30 0 26 -39z"
      ></path>
      <path
        d="M2433 3383 c-24 -8 -43 -19 -43 -24 0 -5 -7 -9 -15 -9 -10 0 -15 -10 -15 -30 0 -27 -3 -30 -30 -30 -20 0 -30 -5 -30 -15 0 -8 -4 -15 -9 -15 -13 0 -41 -87 -41 -127 0 -52 26 -42 40 16 25 107 104 186 211 211 30 7 49 17 49 26 0 19 -61 17 -117 -3z"
      ></path>
      <path
        d="M3660 3387 c0 -8 25 -21 60 -31 230 -63 274 -388 68 -505 -28 -16 -66 -32 -84 -36 -47 -8 -46 -35 1 -35 39 0 115 27 115 41 0 5 7 9 15 9 9 0 15 9 15 24 0 19 6 25 27 28 20 2 30 11 38 33 5 17 15 36 22 43 31 32 29 208 -3 275 -10 20 -21 37 -26 37 -4 0 -8 6 -8 13 0 16 -52 67 -68 67 -7 0 -12 4 -12 9 0 13 -87 41 -127 41 -21 0 -33 -5 -33 -13z"
      ></path>
      <path
        d="M583 3046 c6 -63 32 -146 47 -146 4 0 10 -9 13 -20 4 -15 14 -20 36 -20 28 0 31 -3 31 -30 0 -20 5 -30 15 -30 8 0 15 -4 15 -8 0 -15 74 -44 127 -49 44 -5 53 -3 53 10 0 11 -13 18 -37 23 -21 3 -65 20 -97 37 -94 50 -150 134 -171 260 -4 25 -11 37 -22 37 -14 0 -15 -9 -10 -64z"
      ></path>
      <path
        d="M2253 3026 c3 -29 15 -72 26 -95 18 -34 26 -41 51 -41 27 0 30 -3 30 -30 0 -27 6 -34 53 -55 58 -28 127 -34 127 -11 0 8 -18 18 -42 24 -102 26 -183 109 -208 213 -8 32 -17 49 -27 49 -13 0 -15 -10 -10 -54z"
      ></path>
      <path
        d="M3681 1476 l-173 -174 336 -403 c186 -222 358 -421 384 -441 97 -77 254 -91 361 -33 69 38 135 112 161 183 42 110 13 264 -64 344 -26 27 -800 678 -822 690 -6 4 -88 -71 -183 -166z"
      ></path>
      <path
        d="M2120 1575 c0 -21 -5 -25 -30 -25 -23 0 -30 -4 -30 -20 0 -11 -7 -20 -15 -20 -8 0 -15 -9 -15 -19 0 -11 -5 -21 -10 -23 -10 -3 -30 -101 -30 -150 0 -31 29 -40 31 -10 6 83 8 92 34 147 20 41 73 105 88 105 4 0 17 9 29 20 l22 20 -37 0 c-33 0 -37 -3 -37 -25z"
      ></path>
      <path
        d="M2565 1253 c-17 -38 -15 -53 5 -53 16 0 20 7 20 35 0 37 -13 46 -25 18z"
      ></path>
      <path
        d="M2040 1178 c0 -34 3 -38 25 -38 31 0 31 9 0 46 l-25 29 0 -37z"
      ></path>
      <path
        d="M2170 1060 c0 -16 7 -20 35 -20 39 0 43 6 18 26 -27 20 -53 17 -53 -6z"
      ></path>
    </g>
  </g>
  <g fill="rgb(255,155,255)">
    <g>
      <path
        d="M2865 2583 c-150 -33 -335 -102 -335 -124 0 -5 -7 -9 -15 -9 -10 0 -15 -10 -15 -29 l0 -30 56 34 c105 63 222 105 367 129 23 4 37 12 37 21 0 15 -47 19 -95 8z"
      ></path>
      <path
        d="M3110 2575 c0 -9 14 -17 38 -20 157 -27 302 -88 412 -174 58 -45 65 -48 68 -30 5 31 -5 49 -28 49 -11 0 -20 7 -20 15 0 10 -10 15 -30 15 -23 0 -30 4 -30 20 0 11 -7 20 -15 20 -8 0 -15 4 -15 8 0 11 -66 42 -90 42 -11 0 -20 5 -20 10 0 6 -13 10 -29 10 -16 0 -31 4 -33 10 -3 11 -134 40 -179 40 -19 0 -29 -5 -29 -15z"
      ></path>
      <path
        d="M2420 2355 c0 -8 -4 -15 -9 -15 -14 0 -51 -106 -51 -145 0 -54 26 -44 40 15 6 27 27 74 45 105 l34 55 -30 0 c-19 0 -29 -5 -29 -15z"
      ></path>
      <path
        d="M3700 2253 c47 -62 113 -167 142 -228 31 -67 58 -85 58 -40 0 16 -6 25 -15 25 -10 0 -15 10 -15 29 0 39 -9 61 -26 61 -8 0 -14 10 -14 24 0 14 -7 31 -15 40 -8 8 -15 19 -15 25 0 6 -4 11 -10 11 -5 0 -10 7 -10 15 0 8 -9 15 -20 15 -15 0 -20 7 -20 25 0 21 -5 25 -31 25 l-31 0 22 -27z"
      ></path>
      <path
        d="M2360 2051 c0 -51 20 -91 45 -91 l22 0 -21 60 c-22 63 -46 80 -46 31z"
      ></path>
      <path
        d="M152 1578 c4 -219 6 -238 31 -313 50 -150 154 -272 289 -340 139 -69 49 -66 1706 -63 l1493 3 -155 186 -155 185 -103 28 c-219 59 -400 157 -514 279 -33 35 -91 109 -129 165 l-69 102 -1199 0 -1199 0 4 -232z m854 4 c65 -33 101 -68 130 -128 90 -184 -45 -397 -251 -396 -187 1 -313 175 -261 357 21 71 97 153 166 178 60 22 161 17 216 -11z m674 12 c72 -21 150 -98 175 -173 46 -141 -29 -296 -168 -348 -18 -6 -61 -12 -98 -12 -246 -3 -362 299 -181 473 44 42 124 75 183 76 19 0 59 -7 89 -16z m752 -21 c125 -70 177 -219 123 -350 -22 -51 -91 -119 -147 -143 -137 -59 -300 4 -362 139 -31 69 -29 170 6 237 32 60 94 117 152 138 65 25 163 15 228 -21z"
      ></path>
      <path
        d="M3920 1805 c0 -6 417 -355 425 -355 3 0 5 81 5 180 l0 180 -215 0 c-118 0 -215 -2 -215 -5z"
      ></path>
    </g>
  </g>
  <g fill="rgb(221,190,255)">
    <g>
      <path
        d="M596 4714 c-194 -47 -361 -210 -423 -414 -16 -50 -18 -159 -20 -1197 l-4 -1143 1136 0 c624 0 1135 2 1135 4 0 2 -7 23 -15 46 -22 62 -19 178 6 245 63 168 298 290 583 302 75 4 146 1 190 -7 283 -50 531 -246 659 -523 l31 -67 238 0 238 0 -2 1157 -3 1158 -23 62 c-63 168 -197 302 -365 365 l-62 23 -1620 2 c-1372 1 -1629 -1 -1679 -13z m1242 -553 c69 -31 150 -119 177 -192 19 -51 20 -79 20 -494 0 -437 0 -440 -23 -498 -28 -70 -98 -144 -167 -177 l-50 -25 -475 0 -475 0 -43 23 c-67 36 -129 98 -159 161 l-28 56 0 460 0 460 26 55 c33 71 70 114 126 147 91 53 85 53 568 50 l450 -2 53 -24z m1928 -38 c94 -50 148 -128 160 -229 14 -114 -58 -235 -168 -285 l-53 -24 -563 -3 c-567 -3 -637 0 -707 34 -84 40 -145 131 -153 230 -7 89 18 155 82 220 87 87 55 83 751 81 608 -2 610 -2 651 -24z m-24 -769 c61 -20 117 -70 153 -135 25 -46 29 -65 29 -129 1 -62 -4 -84 -26 -126 -31 -58 -83 -108 -142 -135 -38 -17 -79 -19 -651 -19 -592 0 -611 1 -655 21 -96 43 -159 132 -168 235 -7 89 18 155 82 220 86 86 57 82 737 83 514 1 602 -1 641 -15z"
      ></path>
    </g>
  </g>
</svg>
