<svg xmlns="http://www.w3.org/2000/svg" viewBox="0 0 5120 5120">
  <g fill="rgb(249,81,22)">
    <g>
      <path
        d="M707 4229 c-115 -27 -234 -127 -288 -242 -31 -67 -34 -79 -34 -172 0 -92 3 -106 32 -167 44 -94 99 -148 253 -250 241 -160 549 -296 774 -343 92 -19 149 -7 206 43 77 65 100 162 60 249 -10 23 -65 91 -122 150 -178 186 -279 312 -400 498 -67 104 -107 146 -180 189 -83 48 -207 67 -301 45z m161 -183 c69 -25 100 -56 190 -191 108 -163 229 -314 378 -472 100 -107 114 -126 103 -139 -18 -22 -74 -13 -220 35 -201 68 -410 176 -604 313 -103 73 -145 130 -153 207 -8 88 55 188 150 235 59 30 98 32 156 12z"
      ></path>
      <path
        d="M4213 4225 c-122 -34 -192 -91 -281 -230 -121 -186 -223 -313 -395 -493 -116 -121 -147 -171 -147 -242 0 -95 75 -189 167 -208 144 -31 579 137 893 346 154 102 209 156 253 250 29 61 32 75 32 167 0 93 -3 105 -34 172 -87 186 -302 291 -488 238z m183 -184 c89 -41 164 -142 164 -223 0 -97 -48 -156 -218 -269 -166 -110 -376 -214 -540 -269 -151 -50 -203 -58 -221 -36 -11 13 3 32 103 139 150 159 269 308 378 473 62 93 99 139 129 159 74 49 137 57 205 26z"
      ></path>
      <path
        d="M2003 2345 c-18 -7 -74 -44 -125 -80 -266 -192 -545 -322 -836 -390 -160 -38 -269 -102 -342 -199 -138 -185 -156 -392 -52 -590 94 -180 302 -297 502 -282 92 6 162 30 288 96 390 204 697 577 877 1065 32 87 37 108 32 162 -8 100 -66 178 -162 219 -43 18 -140 18 -182 -1z m142 -197 c31 -36 30 -41 -22 -173 -146 -374 -413 -700 -723 -885 -127 -75 -232 -113 -300 -108 -120 9 -244 98 -303 217 -62 127 -38 267 67 379 63 67 121 96 277 135 269 69 522 183 768 348 83 55 153 104 156 110 13 20 54 8 80 -23z"
      ></path>
      <path
        d="M2924 2341 c-48 -22 -106 -77 -130 -123 -9 -18 -19 -59 -21 -93 -5 -51 0 -74 31 -160 50 -135 162 -361 230 -464 57 -86 64 -101 46 -101 -5 0 -10 -4 -10 -10 0 -17 51 -11 80 10 39 28 70 81 70 119 0 21 -22 68 -66 142 -70 116 -159 305 -190 402 l-18 57 29 30 c16 17 37 30 46 30 10 0 60 -30 111 -66 280 -199 553 -327 862 -405 142 -36 200 -65 262 -131 69 -74 99 -146 99 -239 0 -66 -4 -83 -34 -142 -41 -81 -110 -148 -189 -185 -46 -22 -72 -27 -132 -27 -71 0 -81 3 -180 53 -124 61 -166 66 -226 26 -51 -34 -64 -52 -64 -87 0 -24 2 -27 14 -18 12 10 23 7 53 -12 61 -38 182 -98 243 -119 234 -81 515 34 632 258 105 200 86 408 -54 592 -76 98 -180 159 -340 197 -291 68 -570 198 -836 390 -51 36 -108 73 -127 81 -48 20 -141 17 -191 -5z"
      ></path>
    </g>
  </g>
  <g fill="rgb(255,153,0)">
    <g>
      <path
        d="M1630 5091 c-112 -36 -199 -111 -252 -219 -28 -57 -34 -80 -36 -154 -3 -73 1 -104 27 -199 58 -206 148 -400 260 -559 100 -142 306 -322 434 -381 115 -52 255 14 288 136 14 52 8 86 -40 208 -77 197 -124 430 -141 698 -10 165 -15 190 -50 259 -35 69 -68 108 -129 151 -103 74 -245 98 -361 60z m196 -177 c49 -20 110 -77 136 -129 17 -32 24 -76 35 -220 21 -285 64 -502 137 -696 39 -105 41 -115 26 -124 -17 -10 -174 100 -249 174 -176 173 -313 428 -386 719 -15 58 -15 67 1 114 43 131 187 209 300 162z"
      ></path>
      <path
        d="M3239 5087 c-123 -42 -223 -141 -264 -262 -10 -31 -20 -109 -26 -205 -16 -264 -64 -500 -140 -697 -22 -56 -43 -117 -45 -135 -19 -111 87 -228 206 -228 55 0 104 22 206 90 262 177 459 473 571 855 31 107 34 130 31 211 -3 78 -8 100 -36 156 -94 192 -306 282 -503 215z m220 -182 c62 -31 117 -96 136 -159 14 -47 14 -56 -6 -136 -63 -252 -208 -519 -369 -680 -82 -82 -235 -191 -257 -183 -18 7 -17 14 22 118 73 195 118 421 135 677 13 190 28 246 82 304 78 84 167 105 257 59z"
      ></path>
      <path
        d="M320 2901 c-149 -47 -260 -163 -300 -311 -27 -100 -7 -245 46 -335 39 -66 123 -141 199 -177 126 -59 262 -50 581 37 281 78 641 252 723 351 76 93 60 234 -35 312 -52 43 -94 50 -334 56 -228 5 -390 23 -584 62 -139 28 -220 30 -296 5z m237 -177 c142 -33 337 -55 587 -66 226 -10 262 -14 278 -30 10 -10 15 -24 12 -33 -8 -20 -144 -104 -270 -165 -222 -108 -674 -232 -760 -208 -125 34 -217 141 -218 254 -1 97 76 205 175 248 45 20 112 20 196 0z"
      ></path>
      <path
        d="M4495 2895 c-181 -38 -348 -56 -575 -61 -240 -6 -282 -13 -334 -56 -95 -78 -111 -219 -35 -312 82 -99 442 -273 723 -351 317 -86 455 -95 579 -38 75 36 164 114 201 177 53 90 73 237 45 338 -51 193 -231 330 -428 327 -36 -1 -115 -11 -176 -24z m269 -174 c95 -41 170 -149 170 -246 0 -81 -58 -173 -138 -220 -69 -40 -114 -45 -221 -24 -135 26 -314 75 -425 116 -174 64 -450 213 -464 249 -3 8 3 23 13 33 16 16 43 19 217 25 235 8 425 28 584 60 146 30 206 31 264 7z"
      ></path>
    </g>
  </g>
  <g fill="rgb(226,7,185)">
    <g>
      <path
        d="M2484 3381 c-38 -23 -72 -66 -81 -100 -20 -85 -82 -151 -166 -175 -138 -40 -177 -189 -75 -281 21 -19 46 -35 56 -35 10 0 41 -11 69 -25 58 -29 96 -77 113 -145 15 -57 73 -116 123 -125 90 -17 173 36 197 125 23 88 76 139 175 170 22 7 55 26 73 43 92 88 47 235 -85 273 -84 24 -146 90 -167 176 -8 34 -50 85 -87 103 -39 21 -108 19 -145 -4z m94 -274 c2 -15 8 -27 13 -27 5 0 9 -6 9 -13 0 -7 10 -17 22 -22 13 -6 29 -22 36 -37 7 -16 20 -28 28 -28 7 0 14 -4 14 -9 0 -5 14 -14 30 -21 l31 -13 -48 -27 c-60 -34 -129 -110 -138 -150 -8 -37 -20 -38 -33 -2 -27 76 -134 172 -191 172 -22 0 -20 3 15 19 54 25 116 81 156 142 34 53 51 58 56 16z"
      ></path>
      <path
        d="M3284 1713 c-36 -7 -94 -65 -108 -108 -12 -33 -12 -42 1 -62 14 -20 13 -26 -6 -57 -29 -46 -81 -84 -139 -101 -77 -23 -122 -82 -122 -160 0 -82 40 -130 133 -161 94 -30 132 -71 163 -174 49 -164 264 -156 317 13 18 58 66 116 119 143 27 14 37 14 70 3 35 -11 41 -10 66 8 56 41 72 79 72 165 0 115 -36 175 -116 194 -86 21 -145 73 -173 156 -27 78 -46 104 -95 128 -40 19 -121 25 -182 13z m108 -341 c10 -7 18 -21 18 -31 0 -19 49 -71 68 -71 7 0 12 -4 12 -10 0 -5 8 -10 18 -10 11 0 28 -8 40 -18 l21 -18 -34 -13 c-39 -14 -135 -98 -135 -118 0 -7 -4 -13 -8 -13 -5 0 -14 -12 -21 -27 l-12 -27 -26 45 c-34 56 -99 121 -141 140 -37 16 -40 25 -12 34 31 10 133 108 155 149 17 31 21 33 29 18 5 -9 18 -23 28 -30z"
      ></path>
      <path
        d="M1943 900 c-39 -23 -55 -47 -84 -125 -29 -78 -68 -115 -155 -149 -39 -14 -80 -37 -92 -49 -61 -65 -53 -183 16 -237 14 -11 50 -28 80 -36 74 -22 131 -79 155 -155 21 -69 45 -101 91 -123 46 -21 98 -20 145 4 44 22 74 64 91 130 17 63 81 123 154 144 98 29 148 101 133 192 -10 61 -48 99 -129 130 -91 34 -136 78 -161 156 -9 30 -26 67 -37 81 -44 56 -146 74 -207 37z m103 -275 c3 -20 12 -35 20 -35 8 0 14 -8 14 -17 0 -23 29 -53 52 -53 10 0 18 -7 18 -15 0 -8 12 -18 28 -21 45 -11 43 -26 -6 -57 -58 -36 -102 -77 -102 -94 0 -7 -4 -13 -10 -13 -5 0 -10 -5 -10 -10 0 -6 -8 -20 -19 -31 -19 -20 -19 -20 -25 4 -10 40 -107 136 -149 148 -44 12 -48 32 -8 49 41 17 127 102 151 151 24 45 36 44 46 -6z"
      ></path>
    </g>
  </g>
  <g fill="rgb(255,214,0)">
    <g>
      <path
        d="M682 4064 c-155 -77 -203 -272 -102 -415 41 -57 300 -223 485 -310 150 -71 389 -149 453 -149 33 0 65 34 65 68 0 25 -20 52 -117 155 -149 158 -269 309 -378 472 -48 72 -101 141 -118 153 -78 58 -201 69 -288 26z"
      ></path>
      <path
        d="M4229 4080 c-65 -19 -110 -64 -197 -194 -108 -163 -228 -313 -375 -470 -62 -67 -116 -129 -120 -139 -9 -24 8 -64 34 -77 48 -26 306 53 525 160 161 79 401 234 438 283 41 53 58 105 57 174 -1 156 -119 274 -270 272 -37 0 -78 -4 -92 -9z"
      ></path>
      <path
        d="M2053 2208 c-11 -7 -89 -59 -173 -115 -244 -165 -498 -280 -769 -350 -74 -18 -157 -46 -183 -60 -64 -35 -133 -110 -166 -181 -24 -50 -27 -69 -27 -162 0 -99 2 -110 32 -171 39 -80 111 -150 191 -187 44 -21 76 -27 142 -30 77 -3 94 -1 165 27 246 95 512 321 684 582 95 143 187 326 231 456 28 85 29 95 17 125 -8 18 -23 41 -34 51 -27 23 -82 31 -110 15z"
      ></path>
      <path
        d="M2985 2211 c-29 -13 -61 -52 -69 -82 -7 -32 23 -123 91 -274 54 -121 172 -327 183 -320 4 3 10 19 14 36 9 48 75 106 130 114 93 14 161 -34 195 -138 29 -86 88 -140 175 -161 40 -10 83 -44 101 -82 19 -41 19 -116 0 -153 -17 -34 -70 -81 -91 -81 -34 0 -7 -22 84 -67 l97 -48 105 0 c93 0 112 3 162 27 79 37 148 105 189 185 32 64 34 72 34 172 0 94 -3 112 -27 163 -33 71 -102 146 -165 181 -27 14 -102 39 -169 56 -309 78 -582 206 -863 406 -94 67 -137 83 -176 66z"
      ></path>
    </g>
  </g>
  <g fill="rgb(255,99,237)">
    <g>
      <path
        d="M2527 3190 c-10 -28 -37 -74 -60 -103 -44 -53 -133 -121 -147 -112 -5 3 -11 1 -15 -5 -4 -6 -9 -8 -13 -6 -4 2 -16 -2 -26 -9 -16 -13 -17 -16 -3 -29 8 -9 34 -20 57 -25 22 -5 59 -21 81 -36 40 -26 104 -106 104 -128 0 -7 6 -18 13 -26 7 -7 11 -20 8 -27 -3 -8 -2 -14 3 -14 5 0 11 -9 14 -20 3 -14 10 -18 22 -14 9 4 14 13 11 20 -3 7 -1 16 5 19 5 4 7 11 4 16 -4 5 -2 9 4 9 5 0 12 14 16 30 4 17 11 30 16 30 5 0 8 3 7 8 -6 16 76 92 132 121 33 18 61 31 62 30 2 -1 13 1 26 5 25 8 30 26 7 26 -27 0 -125 42 -120 51 4 5 -3 9 -14 9 -12 0 -25 11 -33 27 -7 15 -23 32 -35 39 -13 6 -20 14 -17 17 4 4 0 9 -9 13 -9 3 -13 12 -11 19 3 7 -3 22 -13 32 -11 11 -17 25 -15 31 2 7 -1 12 -8 12 -6 0 -8 5 -4 11 6 10 -11 28 -26 29 -3 0 -13 -23 -23 -50z"
      ></path>
      <path
        d="M3343 1517 c-4 -6 -8 -22 -9 -35 -4 -37 -48 -104 -102 -154 -47 -44 -112 -86 -112 -72 0 4 -6 2 -12 -4 -7 -6 -16 -11 -20 -11 -19 -3 -38 -14 -38 -21 0 -4 23 -15 51 -24 60 -20 132 -63 124 -75 -2 -5 5 -11 16 -14 12 -3 18 -10 14 -16 -3 -6 1 -11 9 -11 9 0 16 -4 16 -10 0 -19 3 -25 17 -35 8 -6 23 -36 33 -65 10 -30 25 -55 32 -55 7 0 12 8 10 18 -2 9 2 17 9 17 6 0 9 7 5 15 -3 8 -1 15 5 15 6 0 7 5 4 10 -3 6 -1 10 5 10 6 0 8 5 5 10 -3 6 -1 10 5 10 6 0 8 5 5 10 -3 6 -1 10 4 10 6 0 11 6 11 13 0 26 100 106 160 128 62 22 98 49 66 49 -9 0 -16 4 -16 9 0 5 -8 7 -18 4 -10 -2 -28 5 -41 16 -13 12 -33 21 -43 21 -11 0 -16 5 -13 10 3 6 -2 10 -13 10 -22 0 -65 43 -68 68 -2 9 -12 24 -23 33 -11 9 -17 19 -14 23 4 3 1 6 -5 6 -6 0 -9 7 -6 15 4 8 1 15 -5 15 -6 0 -8 7 -5 15 4 8 1 15 -5 15 -6 0 -8 6 -5 14 6 17 -23 29 -33 13z"
      ></path>
      <path
        d="M1999 732 c-37 -116 -145 -228 -236 -246 -29 -5 -53 -17 -53 -27 0 -4 18 -13 40 -19 22 -6 40 -15 40 -19 0 -5 19 -15 43 -23 23 -8 41 -19 40 -26 -2 -7 3 -12 10 -12 18 0 49 -34 40 -43 -3 -4 1 -7 10 -7 17 0 71 -103 64 -123 -3 -11 15 -37 27 -37 3 0 6 7 6 15 0 8 5 15 11 15 6 0 9 7 5 15 -3 8 -1 15 5 15 6 0 9 7 5 15 -3 8 -1 15 5 15 6 0 7 4 4 10 -3 5 -1 10 4 10 6 0 11 7 11 15 0 8 3 15 8 15 4 0 12 10 17 22 14 30 100 94 155 115 25 9 49 20 54 24 12 11 -16 37 -35 32 -9 -3 -22 2 -30 10 -8 7 -27 17 -42 20 -15 4 -26 13 -24 19 1 7 -7 14 -18 16 -21 4 -55 30 -53 41 2 20 -4 31 -18 31 -8 0 -13 4 -10 9 7 11 -22 71 -34 71 -5 0 -7 7 -4 15 4 8 1 15 -6 15 -7 0 -10 6 -7 14 3 8 0 17 -8 20 -9 3 -18 -7 -26 -32z"
      ></path>
    </g>
  </g>
  <g fill="rgb(255,255,111)">
    <g>
      <path
        d="M1705 4961 c-122 -21 -225 -139 -225 -259 0 -85 64 -282 144 -447 106 -216 241 -377 412 -491 93 -62 136 -72 161 -38 19 25 13 60 -32 174 -72 185 -117 406 -138 695 -16 201 -25 231 -94 297 -59 56 -146 83 -228 69z"
      ></path>
      <path
        d="M3318 4959 c-88 -14 -173 -88 -201 -175 -9 -27 -21 -122 -27 -212 -19 -295 -68 -513 -171 -768 -16 -41 -5 -78 27 -93 23 -10 33 -9 68 10 267 138 502 470 601 848 29 108 30 139 10 207 -37 127 -168 205 -307 183z"
      ></path>
      <path
        d="M383 2770 c-85 -17 -160 -76 -200 -158 -24 -48 -28 -69 -28 -137 0 -67 5 -88 27 -131 46 -88 136 -149 236 -160 110 -13 554 110 763 210 113 53 259 140 277 163 18 25 15 80 -6 101 -16 16 -50 20 -278 30 -256 11 -428 31 -614 71 -103 22 -114 23 -177 11z"
      ></path>
      <path
        d="M4500 2750 c-190 -38 -370 -57 -614 -66 -222 -8 -236 -12 -236 -77 0 -45 12 -58 110 -117 185 -111 378 -190 614 -250 215 -54 289 -65 359 -50 105 21 200 110 228 213 26 95 -8 214 -81 287 -88 88 -172 102 -380 60z"
      ></path>
    </g>
  </g>
</svg>
