<svg xmlns="http://www.w3.org/2000/svg" viewBox="0 0 5120 5120">
  <g fill="rgb(0,126,168)">
    <g>
      <path
        d="M358 5109 c-83 -12 -165 -54 -229 -118 -66 -67 -105 -145 -119 -238 -13 -91 -13 -930 0 -1012 13 -79 39 -130 91 -180 152 -149 402 -105 496 87 l28 57 3 393 3 392 379 0 c364 0 382 1 437 22 78 29 152 103 182 183 42 111 15 237 -70 324 -50 52 -101 78 -180 91 -76 12 -937 12 -1021 -1z m1039 -195 c39 -29 73 -82 73 -113 0 -38 -43 -95 -87 -117 -35 -18 -70 -19 -463 -22 -369 -2 -427 -5 -442 -19 -16 -14 -17 -52 -20 -447 l-3 -432 -27 -41 c-26 -40 -79 -73 -116 -73 -25 0 -80 38 -106 73 -21 28 -21 39 -24 503 -2 307 1 488 8 513 19 72 69 132 139 169 l64 33 488 -3 c477 -3 488 -3 516 -24z"
      ></path>
      <path
        d="M3732 5109 c-193 -32 -310 -232 -241 -414 30 -80 104 -154 182 -183 55 -21 73 -22 437 -22 l380 0 0 -380 c0 -364 1 -382 22 -437 29 -78 103 -152 183 -182 112 -43 236 -16 324 69 52 51 78 102 91 181 13 80 13 907 0 1007 -13 96 -51 174 -119 243 -67 66 -145 105 -238 119 -83 12 -947 11 -1021 -1z m1010 -179 c63 -18 129 -70 162 -130 l31 -55 0 -496 0 -496 -28 -36 c-31 -40 -74 -67 -108 -67 -33 0 -85 37 -111 78 -23 37 -23 38 -26 467 -3 372 -5 432 -19 447 -14 16 -53 17 -447 20 -430 3 -431 3 -468 26 -43 27 -78 78 -78 114 0 33 37 87 79 115 l34 23 471 0 c290 0 485 -4 508 -10z"
      ></path>
      <path
        d="M2425 3460 c-179 -28 -363 -154 -460 -315 -114 -191 -125 -475 -26 -677 116 -238 345 -378 621 -378 266 0 496 134 614 359 56 107 70 176 70 336 -1 124 -4 149 -27 220 -36 108 -86 190 -166 268 -129 128 -265 185 -456 192 -60 2 -137 0 -170 -5z m235 -221 c173 -39 327 -204 366 -390 12 -60 12 -78 0 -139 -42 -198 -192 -349 -393 -396 -87 -20 -166 -7 -274 48 -137 68 -233 194 -265 349 -12 60 -12 78 0 137 33 157 136 290 279 358 108 51 173 58 287 33z"
      ></path>
      <path
        d="M220 1633 c-76 -26 -146 -87 -183 -159 -9 -17 -21 -60 -26 -95 -14 -82 -14 -921 -1 -1012 14 -93 53 -171 119 -238 67 -66 145 -105 238 -119 91 -13 930 -13 1012 0 79 13 130 39 181 91 148 153 104 402 -88 496 l-57 28 -392 3 -392 3 -3 392 -3 392 -28 57 c-69 140 -235 211 -377 161z m156 -184 c18 -11 43 -37 56 -57 23 -37 23 -38 26 -468 3 -394 4 -433 20 -447 15 -14 75 -16 447 -19 429 -3 430 -3 467 -26 43 -27 78 -78 78 -114 0 -30 -35 -84 -73 -112 -28 -21 -39 -21 -503 -24 -307 -2 -488 1 -513 8 -65 17 -131 69 -165 130 l-31 55 0 497 c0 488 0 497 21 525 28 38 82 73 112 73 13 0 40 -9 58 -21z"
      ></path>
      <path
        d="M4690 1629 c-75 -30 -150 -107 -178 -182 -21 -55 -22 -73 -22 -437 l0 -379 -392 -3 -393 -3 -57 -28 c-239 -117 -233 -451 10 -565 l57 -27 475 -3 c294 -2 504 1 552 7 103 14 179 51 249 120 68 69 106 147 119 243 13 100 13 927 0 1007 -13 79 -39 130 -91 181 -87 85 -219 112 -329 69z m170 -181 c18 -13 43 -36 54 -51 21 -28 21 -37 21 -525 l0 -497 -31 -55 c-34 -61 -100 -113 -165 -130 -25 -7 -206 -10 -512 -8 l-474 3 -36 28 c-38 29 -67 73 -67 102 0 35 35 88 73 113 l41 27 432 3 c395 3 433 4 447 20 14 15 17 73 19 442 3 476 3 476 77 526 44 30 79 30 121 2z"
      ></path>
    </g>
  </g>
  <g fill="rgb(136,248,216)">
    <g>
      <path
        d="M298 4937 c-68 -35 -118 -95 -138 -165 -6 -23 -10 -225 -10 -530 0 -539 0 -535 59 -585 81 -68 197 -49 253 42 23 36 23 39 26 467 3 395 4 433 20 447 15 14 73 17 442 19 395 3 428 4 463 22 126 63 116 255 -16 305 -19 7 -199 11 -532 11 l-503 0 -64 -33z"
      ></path>
      <path
        d="M3704 4951 c-115 -70 -118 -223 -5 -293 36 -23 39 -23 467 -26 394 -3 433 -4 447 -20 14 -15 16 -75 19 -447 3 -429 3 -430 26 -467 32 -51 82 -80 140 -81 58 -1 102 22 139 70 l28 36 0 526 0 526 -31 55 c-33 60 -99 112 -162 130 -23 6 -227 10 -537 10 -472 0 -502 -1 -531 -19z"
      ></path>
      <path
        d="M2472 3280 c-89 -13 -196 -72 -271 -148 -74 -75 -115 -151 -137 -252 -17 -82 -17 -118 0 -202 42 -195 191 -346 387 -393 81 -19 137 -19 217 0 204 48 358 211 392 417 36 211 -79 433 -274 528 -109 54 -195 67 -314 50z m163 -289 c60 -27 101 -66 129 -123 32 -65 33 -115 2 -176 -29 -56 -65 -92 -123 -121 -102 -51 -228 2 -289 121 -30 59 -30 109 0 173 37 80 129 145 206 145 19 0 53 -9 75 -19z"
      ></path>
      <path
        d="M281 1500 c-39 -9 -76 -35 -105 -74 -21 -27 -21 -38 -21 -554 l0 -527 31 -55 c33 -60 99 -112 162 -130 23 -6 225 -10 530 -10 539 0 535 0 585 59 68 82 50 197 -42 253 -36 23 -39 23 -466 26 -372 3 -432 5 -447 19 -16 14 -17 53 -20 447 -3 430 -3 431 -26 468 -39 63 -110 93 -181 78z"
      ></path>
      <path
        d="M4764 1500 c-46 -10 -89 -44 -110 -87 -18 -35 -19 -71 -22 -463 -2 -369 -5 -427 -19 -442 -14 -16 -52 -17 -447 -20 l-432 -3 -41 -27 c-69 -46 -97 -144 -60 -215 10 -18 34 -45 54 -60 l36 -28 526 0 526 0 55 31 c60 33 112 99 130 162 14 52 14 1011 -1 1049 -28 75 -116 121 -195 103z"
      ></path>
    </g>
  </g>
  <g fill="rgb(255,206,255)">
    <g>
      <path
        d="M2355 3679 c-318 -30 -628 -155 -824 -332 -127 -115 -198 -222 -242 -367 -30 -97 -33 -289 -5 -389 84 -307 399 -563 817 -665 176 -43 244 -50 459 -50 212 0 299 10 473 54 305 78 561 239 694 435 87 129 121 225 130 374 13 209 -67 409 -228 570 -281 280 -757 418 -1274 370z m404 -274 c101 -32 182 -82 262 -162 80 -78 130 -160 166 -268 33 -101 37 -262 9 -365 -50 -182 -179 -337 -351 -420 -137 -66 -269 -84 -413 -54 -202 41 -372 173 -463 361 -167 342 -1 758 359 898 131 50 291 54 431 10z"
      ></path>
    </g>
  </g>
  <g fill="rgb(226,7,185)">
    <g>
      <path
        d="M2300 3785 c-403 -55 -761 -239 -964 -496 -117 -148 -176 -300 -183 -476 -10 -204 48 -371 187 -549 44 -56 47 -63 34 -82 -13 -18 -9 -24 49 -74 128 -112 257 -193 396 -247 50 -20 54 -21 66 -5 11 16 18 15 96 -9 89 -28 180 -51 242 -61 27 -5 37 -12 37 -26 0 -26 73 -35 300 -35 227 0 300 9 300 35 0 14 10 21 38 26 67 11 196 44 261 67 61 21 63 21 77 3 13 -18 15 -18 66 4 150 64 261 132 381 235 74 63 77 67 63 87 -14 20 -12 25 23 67 92 111 156 239 187 377 22 102 15 269 -16 369 -129 410 -564 715 -1129 790 -130 18 -383 18 -511 0z m415 -135 c445 -42 813 -230 996 -508 189 -287 143 -614 -123 -873 -235 -230 -612 -363 -1028 -363 -184 0 -259 9 -429 50 -418 102 -734 359 -817 665 -26 96 -24 235 5 329 44 144 115 252 242 367 270 243 720 374 1154 333z"
      ></path>
    </g>
  </g>
  <g fill="rgb(109,0,202)">
    <g>
      <path
        d="M2454 3021 c-100 -45 -157 -135 -156 -247 1 -145 115 -257 262 -257 148 0 261 112 262 258 1 153 -110 265 -261 265 -42 0 -81 -7 -107 -19z m155 -192 c17 -17 31 -39 31 -49 0 -25 -54 -80 -78 -80 -27 0 -82 53 -82 78 0 26 55 82 80 82 10 0 32 -14 49 -31z"
      ></path>
      <path
        d="M1336 2124 c-60 -91 -75 -133 -76 -206 -1 -193 175 -337 364 -298 82 17 141 62 209 160 58 86 65 100 46 100 -6 0 -44 15 -84 34 l-74 34 -23 -36 c-61 -99 -122 -136 -176 -108 -45 23 -82 73 -82 109 0 21 14 54 40 92 22 33 40 63 40 66 0 4 -30 34 -68 67 l-68 60 -48 -74z"
      ></path>
      <path
        d="M3666 2135 l-70 -63 42 -64 c51 -78 53 -110 12 -160 -71 -87 -142 -68 -224 59 l-27 41 -77 -35 c-42 -19 -80 -38 -85 -42 -14 -13 106 -173 156 -207 194 -133 467 12 467 249 0 76 -14 115 -73 205 l-52 80 -69 -63z"
      ></path>
      <path
        d="M2260 1668 c0 -69 5 -120 16 -151 37 -109 162 -197 279 -197 89 0 150 25 216 90 73 72 89 119 89 258 l0 105 -61 -7 c-34 -3 -73 -6 -85 -6 -23 0 -24 -3 -24 -67 0 -81 -28 -146 -74 -174 -40 -25 -71 -24 -114 3 -47 29 -72 86 -72 171 0 64 -1 67 -24 67 -12 0 -51 3 -85 6 l-61 7 0 -105z"
      ></path>
    </g>
  </g>
  <g fill="rgb(185,142,255)">
    <g>
      <path
        d="M2481 2859 c-26 -26 -31 -38 -31 -81 0 -43 4 -54 30 -78 111 -104 265 53 158 160 -25 25 -38 30 -78 30 -41 0 -53 -5 -79 -31z"
      ></path>
      <path
        d="M1449 2034 c-37 -58 -43 -74 -43 -120 0 -60 19 -94 75 -132 28 -20 43 -23 87 -20 65 6 94 26 150 106 l43 61 -48 25 c-50 25 -124 73 -185 119 l-35 27 -44 -66z"
      ></path>
      <path
        d="M3585 2069 c-54 -41 -135 -93 -185 -119 l-41 -21 43 -62 c24 -34 59 -72 77 -84 64 -43 156 -24 207 42 23 30 28 48 28 90 0 45 -6 62 -43 119 -24 36 -44 66 -45 66 0 0 -19 -14 -41 -31z"
      ></path>
      <path
        d="M2400 1675 c1 -139 55 -210 161 -208 105 2 159 72 159 207 l0 81 -160 0 -160 0 0 -80z"
      ></path>
    </g>
  </g>
</svg>
