<svg
  xmlns="http://www.w3.org/2000/svg"
  viewBox="0 0 5120 5120"

>
  <g  fill="rgb(255,153,0)">
    <g>
      <path

        d="M1417 1696 c-46 -17 -99 -57 -125 -93 -33 -48 -42 -92 -42 -204 0 -99 2 -108 20 -114 11 -3 23 -18 26 -33 47 -215 117 -353 257 -514 35 -41 70 -84 76 -97 40 -73 -59 -174 -139 -143 -14 6 -54 36 -90 67 -178 155 -385 247 -615 275 -150 18 -223 0 -292 -72 -91 -94 -86 -246 12 -341 44 -43 103 -63 205 -71 148 -11 263 -63 398 -181 134 -116 260 -166 417 -166 166 0 301 57 420 176 119 118 175 252 175 418 0 164 -52 291 -171 422 -71 77 -80 91 -54 81 25 -9 18 29 -15 81 -41 64 -67 152 -75 254 -4 46 -13 98 -20 115 -18 45 -72 102 -119 126 -52 27 -192 35 -249 14z m148 -226 c13 -15 22 -52 32 -130 22 -181 68 -278 201 -425 156 -172 186 -323 98 -490 -84 -160 -278 -267 -429 -235 -84 17 -146 51 -252 140 -158 131 -289 186 -497 206 -99 9 -140 67 -80 114 24 20 35 21 100 16 170 -16 379 -106 512 -221 123 -105 151 -119 251 -123 47 -2 104 1 127 7 61 17 122 68 155 131 27 52 29 60 25 155 -5 120 -13 137 -111 244 -142 155 -237 370 -237 537 0 75 63 120 105 74z"
      ></path>
      <path

        d="M3842 1695 c-53 -23 -101 -65 -130 -114 -25 -43 -27 -54 -27 -166 0 -115 1 -120 23 -130 12 -5 22 -17 22 -25 0 -38 45 -182 79 -256 48 -102 109 -192 182 -269 31 -33 61 -70 68 -82 29 -56 -3 -133 -64 -153 -51 -17 -72 -8 -153 59 -204 171 -397 256 -640 282 -93 10 -115 10 -162 -4 -173 -51 -237 -254 -121 -388 46 -55 120 -89 192 -89 77 0 197 -32 277 -75 37 -19 103 -67 147 -105 87 -76 202 -139 295 -160 193 -45 414 22 555 168 114 118 169 254 169 417 0 168 -46 280 -172 418 -52 58 -69 83 -58 85 24 5 20 25 -19 96 -46 83 -54 110 -64 227 -13 141 -62 220 -163 261 -54 21 -189 23 -236 3z m158 -230 c19 -20 24 -40 30 -112 15 -172 69 -294 192 -429 84 -92 111 -134 139 -216 72 -214 -96 -466 -348 -518 -112 -24 -218 17 -365 141 -147 125 -298 187 -490 204 -68 7 -118 35 -118 68 0 29 51 67 90 67 63 0 190 -28 275 -61 132 -50 175 -78 355 -224 66 -54 100 -65 205 -65 63 0 91 5 130 24 55 25 109 80 133 135 20 45 22 190 3 243 -7 21 -44 72 -83 115 -125 137 -184 241 -228 397 -12 44 -23 108 -24 142 -1 53 2 66 23 88 31 33 51 33 81 1z"
      ></path>
    </g>
  </g>
  <g  fill="rgb(226,7,185)">
    <g>
      <path

        d="M900 5110 c-82 -15 -151 -79 -170 -159 -10 -44 -2 -91 125 -690 75 -353 134 -645 131 -648 -3 -4 -136 33 -294 80 -159 48 -304 87 -322 87 -55 0 -109 -22 -154 -62 -50 -44 -77 -102 -78 -168 0 -53 527 -1857 569 -1947 31 -68 106 -149 174 -190 33 -20 121 -51 228 -83 96 -27 175 -49 175 -48 1 2 -1 45 -4 97 l-5 94 -125 36 c-144 43 -171 55 -223 106 -54 53 -67 84 -145 350 -39 132 -159 539 -266 904 -108 365 -196 672 -196 682 0 10 11 25 24 34 22 15 43 10 358 -85 365 -109 428 -120 468 -80 30 30 26 109 -15 301 -48 230 -97 459 -150 709 -103 481 -106 500 -73 500 8 0 304 -449 660 -997 515 -796 643 -1001 634 -1011 -10 -10 -69 4 -314 78 -361 108 -404 112 -440 43 -33 -61 -36 -56 443 -975 358 -689 452 -876 442 -885 -10 -10 -67 3 -276 62 -144 41 -270 75 -278 75 -20 0 -12 -44 21 -114 41 -91 41 -91 274 -156 117 -33 231 -60 253 -60 44 0 107 28 139 63 57 59 74 138 46 213 -8 22 -196 388 -418 814 -222 426 -401 777 -396 778 4 2 110 -26 234 -63 258 -77 301 -81 373 -31 75 52 110 162 77 240 -16 38 -1289 2010 -1320 2044 -42 48 -120 73 -186 62z"
      ></path>
      <path

        d="M3317 5105 c-92 -23 -157 -104 -157 -196 0 -24 60 -325 133 -669 83 -388 129 -626 123 -628 -6 -1 -139 36 -295 83 -158 47 -303 85 -325 85 -48 0 -131 -37 -163 -71 -34 -37 -63 -109 -63 -157 0 -54 537 -1879 576 -1960 35 -71 124 -160 195 -194 46 -22 369 -121 376 -115 1 1 -2 45 -5 97 l-7 94 -126 36 c-70 20 -142 46 -160 58 -37 23 -87 73 -111 113 -9 14 -71 212 -137 440 -67 227 -131 441 -141 474 -10 33 -78 262 -151 508 l-132 449 25 25 25 25 336 -101 c376 -113 428 -121 472 -76 18 17 25 35 25 62 0 21 -65 348 -146 727 -133 629 -145 690 -130 704 10 10 19 13 25 7 6 -6 298 -455 650 -1000 523 -808 638 -992 628 -1002 -11 -11 -68 3 -315 77 -322 96 -371 104 -416 69 -23 -18 -26 -28 -26 -80 0 -59 3 -66 451 -926 373 -717 448 -868 437 -879 -11 -10 -56 0 -258 57 -135 38 -260 69 -278 69 -30 0 -32 -2 -26 -27 3 -16 23 -59 43 -98 l37 -70 215 -62 c172 -51 225 -62 271 -60 108 6 188 91 189 201 1 56 -7 73 -415 858 -230 440 -415 803 -412 806 3 3 106 -25 229 -62 129 -38 243 -66 269 -66 100 0 187 81 196 184 2 30 0 68 -6 84 -11 32 -1282 2003 -1316 2040 -57 64 -130 87 -209 67z"
      ></path>
    </g>
  </g>
  <g  fill="rgb(255,255,111)">
    <g>
      <path

        d="M1462 1502 c-31 -29 -32 -33 -32 -105 0 -199 85 -402 237 -568 90 -98 105 -127 111 -214 3 -62 1 -76 -25 -125 -51 -97 -141 -146 -254 -138 -66 5 -111 30 -219 123 -145 126 -354 211 -545 222 -96 5 -102 5 -128 -18 -20 -17 -30 -37 -34 -66 -5 -37 -2 -46 24 -72 24 -23 41 -30 89 -35 211 -21 341 -74 499 -206 55 -46 124 -94 153 -108 323 -148 689 128 635 478 -15 98 -58 179 -145 275 -133 147 -179 244 -201 426 -16 125 -29 147 -93 156 -34 4 -44 1 -72 -25z"
      ></path>
      <path

        d="M3898 1501 c-33 -29 -33 -30 -32 -123 2 -200 85 -388 249 -568 79 -85 97 -124 98 -205 0 -102 -54 -188 -148 -231 -94 -44 -189 -30 -275 41 -127 104 -168 134 -220 163 -182 102 -469 157 -529 101 -33 -31 -44 -66 -31 -105 16 -47 45 -61 155 -73 181 -21 308 -77 458 -204 161 -136 285 -173 442 -132 136 36 244 124 306 251 28 56 33 78 37 162 7 153 -27 235 -156 376 -123 135 -177 257 -192 430 -7 84 -9 92 -39 118 -41 37 -81 37 -123 -1z"
      ></path>
    </g>
  </g>
  <g  fill="rgb(255,155,255)">
    <g>
      <path

        d="M890 4950 c-11 -11 -20 -28 -20 -37 0 -10 18 -103 41 -208 22 -104 51 -242 64 -305 13 -63 45 -212 70 -330 97 -453 115 -544 115 -572 0 -35 -32 -68 -66 -68 -15 0 -178 45 -363 101 -185 55 -348 101 -363 101 -36 1 -76 -26 -84 -59 -5 -18 38 -178 150 -557 86 -292 208 -706 271 -921 63 -214 122 -407 132 -428 20 -47 84 -112 133 -137 34 -18 272 -90 295 -90 6 0 16 23 23 52 15 63 53 113 117 153 42 26 58 30 119 30 83 -1 135 -23 186 -81 44 -51 56 -85 65 -183 3 -46 10 -93 14 -104 6 -16 57 -34 281 -97 150 -42 282 -75 292 -72 11 2 26 15 35 28 14 21 13 27 -10 76 -13 29 -221 431 -461 892 -328 631 -436 845 -431 863 7 29 43 63 67 63 10 0 162 -43 338 -96 307 -92 322 -95 345 -80 17 11 25 26 25 46 0 22 -161 278 -641 1020 -352 545 -647 997 -656 1005 -20 21 -59 19 -83 -5z"
      ></path>
    </g>
  </g>
  <g  fill="rgb(255,206,255)">
    <g>
      <path

        d="M3328 4953 c-8 -10 -18 -23 -22 -30 -3 -6 61 -330 144 -718 82 -389 150 -711 150 -717 0 -19 -50 -58 -75 -58 -14 0 -182 47 -375 105 -264 79 -355 103 -372 96 -37 -14 -62 -49 -61 -84 1 -18 58 -221 126 -452 69 -231 129 -436 135 -455 100 -356 289 -972 307 -1000 26 -41 82 -93 123 -114 26 -13 272 -86 290 -86 6 0 13 17 17 38 27 149 193 240 333 184 102 -42 150 -120 163 -265 5 -55 12 -103 16 -107 14 -11 527 -150 554 -150 29 0 59 28 59 54 0 9 -205 410 -455 891 -302 580 -455 884 -455 904 0 30 38 71 66 71 8 0 158 -43 335 -96 308 -92 321 -95 345 -79 32 21 39 40 25 71 -13 28 -1267 1970 -1289 1997 -8 9 -27 17 -42 17 -15 0 -34 -8 -42 -17z"
      ></path>
    </g>
  </g>
</svg>