<svg
  class="img-fluid"
  id="outputsvg"
  xmlns="http://www.w3.org/2000/svg"
  viewBox="0 0 5120 5120"
>
  <g fill="rgb(0,126,168)">
    <g>
      <path
        d="M1532 3371 c-137 -47 -205 -206 -143 -334 32 -67 432 -458 544 -532 179 -118 339 -168 604 -190 108 -9 188 -21 223 -33 66 -23 156 -68 165 -82 3 -5 -10 -24 -30 -41 -56 -49 -79 -103 -79 -179 0 -98 47 -174 139 -224 37 -20 56 -21 302 -24 219 -3 272 -1 318 13 67 19 125 68 157 133 22 46 23 55 23 322 0 306 -3 326 -63 392 -68 75 -154 100 -249 73 -46 -13 -68 -27 -108 -70 l-51 -52 -29 24 c-60 49 -192 124 -270 154 -128 50 -219 69 -400 84 -293 24 -335 46 -630 336 -203 200 -225 218 -274 233 -68 20 -83 20 -149 -3z m297 -365 c113 -112 235 -222 270 -246 126 -84 238 -117 441 -130 288 -19 461 -88 661 -263 75 -66 77 -67 135 -67 74 0 104 24 104 82 0 73 48 131 89 108 48 -25 51 -40 51 -285 0 -203 -2 -233 -18 -251 -33 -41 -52 -44 -287 -44 l-227 0 -29 29 c-37 37 -36 46 2 82 25 23 40 29 77 29 69 0 92 26 92 105 l0 62 -58 55 c-149 143 -299 202 -552 218 -80 5 -183 19 -230 30 -102 25 -248 93 -339 157 -99 70 -461 432 -461 461 0 24 41 72 61 72 7 0 105 -92 218 -204z"
      ></path>
    </g>
  </g>
  <g fill="rgb(249,81,22)">
    <g>
      <path
        d="M3390 4375 c-127 -40 -197 -177 -158 -309 9 -31 41 -70 135 -166 l122 -126 -105 -104 c-139 -138 -159 -172 -159 -270 0 -83 14 -117 67 -170 47 -47 103 -70 173 -70 87 0 125 23 250 149 60 61 114 111 120 111 6 0 62 -52 125 -115 132 -133 163 -150 264 -143 124 8 215 97 224 219 7 97 -14 136 -145 270 -62 64 -113 120 -113 124 0 5 54 63 119 130 127 128 141 153 141 245 0 143 -147 261 -287 232 -68 -14 -117 -49 -233 -166 l-94 -95 -121 118 c-105 104 -128 121 -175 135 -64 19 -90 19 -150 1z m229 -309 c214 -210 219 -210 432 0 80 79 151 144 156 144 16 0 63 -51 63 -68 0 -8 -65 -81 -145 -162 l-145 -147 0 -63 0 -63 145 -147 c80 -80 145 -152 145 -160 0 -21 -41 -60 -63 -60 -12 0 -78 57 -167 145 l-147 145 -58 0 -58 0 -147 -145 c-94 -93 -155 -145 -168 -145 -20 0 -62 43 -62 63 0 6 65 77 145 157 l145 147 0 63 0 64 -145 146 c-80 81 -145 154 -145 162 0 15 53 68 67 68 3 0 72 -65 152 -144z"
      ></path>
      <path
        d="M802 1934 c-84 -42 -132 -121 -132 -216 1 -82 28 -129 150 -253 61 -61 110 -115 110 -120 0 -5 -54 -63 -119 -130 -127 -128 -141 -153 -141 -245 0 -143 147 -261 287 -232 68 14 117 49 233 166 l94 95 121 -119 c110 -107 127 -120 181 -136 50 -14 68 -15 114 -6 143 30 228 169 189 310 -11 39 -32 67 -136 172 l-122 126 105 104 c139 138 159 172 159 270 0 83 -14 117 -67 170 -47 47 -103 70 -173 70 -87 0 -125 -23 -250 -149 -60 -61 -114 -111 -120 -111 -6 0 -60 50 -120 111 -61 61 -128 120 -150 130 -60 28 -148 25 -213 -7z m278 -299 l147 -145 58 0 58 0 147 145 c96 96 153 145 167 145 21 0 63 -42 63 -63 0 -6 -65 -77 -145 -157 l-145 -147 0 -63 0 -64 145 -146 c80 -81 145 -153 145 -162 0 -14 -30 -47 -58 -63 -9 -5 -59 38 -155 133 -78 77 -152 145 -164 151 -28 14 -88 14 -116 0 -12 -6 -86 -74 -164 -151 -134 -132 -142 -139 -165 -127 -27 15 -47 39 -48 58 0 8 65 80 145 161 l145 147 0 63 0 62 -145 147 c-80 81 -145 154 -145 161 0 21 41 60 63 60 12 0 78 -57 167 -145z"
      ></path>
    </g>
  </g>
  <g fill="rgb(255,153,0)">
    <g>
      <path
        d="M3401 4214 c-26 -22 -31 -33 -31 -72 0 -45 1 -46 145 -192 129 -130 145 -149 145 -180 0 -30 -16 -49 -145 -180 -139 -140 -145 -148 -145 -187 0 -73 71 -124 131 -93 13 7 87 75 165 151 114 113 146 139 169 139 23 0 55 -26 169 -139 78 -76 152 -144 165 -151 58 -30 136 21 136 90 0 38 -8 47 -148 188 -131 132 -147 152 -147 182 0 30 16 50 139 174 76 78 144 151 150 164 29 56 -24 132 -92 132 -39 0 -47 -6 -181 -139 -78 -77 -152 -144 -166 -149 -15 -6 -35 -6 -50 0 -14 5 -88 72 -166 149 -128 127 -144 139 -177 139 -24 0 -46 -9 -66 -26z"
      ></path>
      <path
        d="M849 1792 c-25 -22 -32 -36 -33 -70 -1 -40 3 -45 147 -190 129 -131 147 -154 147 -182 0 -29 -18 -51 -144 -179 -88 -90 -146 -157 -150 -174 -9 -36 17 -91 50 -106 63 -28 77 -20 233 133 80 79 156 146 168 150 35 11 58 -7 209 -155 129 -128 144 -139 177 -139 41 0 95 41 98 75 5 60 -2 70 -146 215 -129 130 -145 149 -145 180 0 30 16 49 146 181 134 135 146 150 146 183 0 45 -24 83 -60 97 -55 21 -80 5 -233 -146 -119 -119 -151 -145 -174 -145 -23 0 -55 26 -169 139 -78 76 -151 144 -163 150 -36 18 -71 13 -104 -17z"
      ></path>
    </g>
  </g>
  <g fill="rgb(226,7,185)">
    <g>
      <path
        d="M663 5085 c-324 -83 -580 -357 -643 -685 -16 -80 -14 -254 4 -337 70 -336 342 -608 680 -680 91 -19 261 -19 352 0 406 86 694 441 694 856 0 346 -190 645 -502 791 -179 84 -396 104 -585 55z m372 -171 c193 -49 374 -197 465 -379 52 -105 73 -191 74 -295 1 -251 -163 -506 -399 -620 -140 -68 -265 -89 -390 -67 -338 61 -600 359 -599 682 1 210 106 419 279 551 175 134 371 178 570 128z"
      ></path>
      <path
        d="M606 4499 c-23 -18 -26 -27 -26 -85 0 -107 -9 -104 300 -104 307 0 300 -2 300 100 0 51 -4 65 -25 85 l-24 25 -249 0 c-237 0 -251 -1 -276 -21z"
      ></path>
      <path
        d="M345 4255 c-22 -21 -25 -33 -25 -93 0 -61 3 -72 26 -96 24 -23 35 -26 94 -26 57 0 71 4 94 25 23 22 26 31 26 95 0 62 -3 74 -25 95 -21 22 -33 25 -95 25 -62 0 -74 -3 -95 -25z"
      ></path>
      <path
        d="M1225 4255 c-22 -21 -25 -33 -25 -95 0 -62 3 -74 25 -95 21 -22 33 -25 91 -25 60 0 71 3 96 27 25 24 28 33 28 93 0 57 -4 71 -25 94 -22 23 -31 26 -95 26 -62 0 -74 -3 -95 -25z"
      ></path>
      <path
        d="M4145 1749 c-354 -36 -662 -305 -751 -656 -32 -126 -33 -289 -4 -413 27 -111 104 -268 174 -352 119 -143 298 -255 476 -298 256 -61 550 7 753 175 205 169 318 408 318 675 0 243 -82 441 -256 615 -194 194 -439 281 -710 254z m272 -200 c305 -94 517 -369 517 -669 0 -341 -274 -641 -629 -691 -92 -12 -213 7 -317 51 -204 87 -369 277 -424 490 -74 283 87 619 366 764 167 86 326 104 487 55z"
      ></path>
      <path
        d="M3965 1135 c-21 -20 -25 -34 -25 -83 0 -48 4 -62 23 -80 23 -21 30 -22 280 -22 305 0 297 -3 297 104 0 58 -3 67 -26 85 -25 20 -39 21 -276 21 l-249 0 -24 -25z"
      ></path>
      <path
        d="M3705 895 c-22 -21 -25 -33 -25 -94 0 -65 2 -71 31 -95 26 -22 40 -26 93 -26 53 0 67 4 90 25 23 22 26 31 26 95 0 62 -3 74 -25 95 -21 22 -33 25 -95 25 -62 0 -74 -3 -95 -25z"
      ></path>
      <path
        d="M4585 895 c-22 -21 -25 -33 -25 -93 0 -61 3 -72 26 -96 23 -23 35 -26 90 -26 53 0 67 4 93 26 29 24 31 30 31 95 0 61 -3 73 -25 94 -21 22 -33 25 -95 25 -62 0 -74 -3 -95 -25z"
      ></path>
    </g>
  </g>
  <g fill="rgb(136,248,216)">
    <g>
      <path
        d="M1545 3216 c-29 -29 -40 -66 -31 -103 9 -36 375 -400 467 -466 91 -64 237 -132 339 -157 47 -11 150 -25 230 -30 253 -16 403 -75 552 -218 47 -44 58 -61 58 -87 0 -47 -35 -75 -92 -75 -98 0 -146 -104 -79 -171 l29 -29 257 0 c266 0 284 2 317 44 16 19 18 50 18 284 l0 264 -29 29 c-31 31 -83 39 -122 19 -27 -15 -49 -63 -49 -108 0 -27 -7 -45 -23 -60 -40 -38 -72 -29 -156 45 -200 175 -373 244 -661 263 -203 13 -315 46 -441 130 -35 24 -157 134 -270 246 -202 200 -207 204 -248 204 -31 0 -48 -6 -66 -24z"
      ></path>
    </g>
  </g>
  <g fill="rgb(255,155,255)">
    <g>
      <path
        d="M745 4956 c-277 -55 -490 -251 -567 -521 -32 -115 -32 -290 1 -395 49 -160 134 -283 260 -378 318 -240 763 -185 1010 125 59 75 114 183 138 273 24 88 23 271 0 360 -67 250 -275 460 -522 525 -86 22 -236 27 -320 11z m380 -491 c31 -30 33 -77 5 -105 -19 -19 -33 -20 -250 -20 -217 0 -231 1 -250 20 -30 30 -27 83 6 109 25 20 39 21 246 21 l219 0 24 -25z m-620 -240 c36 -35 35 -97 -1 -130 -60 -56 -154 -15 -154 67 0 54 35 88 90 88 30 0 47 -6 65 -25z m880 -1 c55 -60 13 -154 -69 -154 -52 0 -86 35 -86 90 0 56 34 90 90 90 31 0 47 -6 65 -26z"
      ></path>
      <path
        d="M4118 1600 c-171 -31 -333 -126 -444 -260 -53 -65 -116 -189 -140 -280 -24 -88 -24 -272 -1 -360 57 -214 222 -403 425 -490 394 -168 842 42 980 458 22 66 25 96 26 207 1 110 -3 142 -22 205 -78 248 -252 423 -497 499 -79 25 -249 36 -327 21z m366 -491 c33 -26 36 -79 6 -109 -19 -19 -33 -20 -247 -20 -219 0 -227 1 -250 22 -31 29 -30 72 2 103 l24 25 219 0 c207 0 221 -1 246 -21z m-619 -244 c36 -35 35 -97 -1 -130 -36 -33 -83 -33 -123 1 -25 21 -31 33 -31 65 0 55 34 89 90 89 30 0 47 -6 65 -25z m880 0 c38 -37 35 -95 -6 -129 -64 -54 -149 -16 -149 66 0 54 35 88 90 88 30 0 47 -6 65 -25z"
      ></path>
    </g>
  </g>
</svg>
