<svg xmlns="http://www.w3.org/2000/svg" viewBox="0 0 5120 5120">
  <g fill="rgb(0,126,168)">
    <g>
      <path
        d="M1249 4270 c-46 -13 -78 -41 -99 -84 -20 -42 -20 -49 -20 -1759 0 -1435 2 -1723 14 -1751 7 -18 31 -47 52 -64 l39 -32 998 0 c1108 0 1033 -5 1082 67 l25 38 0 1738 c0 1877 3 1763 -52 1814 -12 11 -41 26 -63 32 -47 13 -1934 14 -1976 1z m1881 -1840 l0 -1640 -895 0 -895 0 0 1633 c0 899 3 1637 7 1640 3 4 406 7 895 7 l888 0 0 -1640z"
      ></path>
      <path
        d="M1929 2681 c-18 -14 -23 -31 -27 -79 -4 -55 -2 -63 21 -86 l26 -26 284 0 c272 0 285 1 311 21 23 18 26 27 26 84 0 57 -3 66 -26 84 -26 20 -39 21 -309 21 -260 0 -285 -1 -306 -19z"
      ></path>
      <path
        d="M1639 2426 c-51 -29 -74 -121 -48 -194 30 -86 198 -99 253 -20 11 15 16 45 16 90 0 60 -3 71 -29 100 -26 30 -34 32 -97 35 -47 2 -77 -1 -95 -11z"
      ></path>
      <path
        d="M2664 2421 c-75 -46 -71 -206 5 -245 38 -20 123 -21 161 -1 47 24 60 52 60 127 0 60 -3 71 -29 100 -26 29 -35 33 -97 36 -55 2 -75 -1 -100 -17z"
      ></path>
    </g>
  </g>
  <g fill="rgb(109,0,202)">
    <g>
      <path
        d="M1238 5109 c-308 -33 -566 -256 -655 -570 -17 -61 -18 -155 -18 -1979 l0 -1915 23 -80 c38 -131 95 -228 192 -326 138 -140 280 -209 473 -229 122 -13 2492 -13 2613 0 328 34 579 249 671 571 17 61 18 155 18 1979 0 1824 -1 1918 -18 1979 -43 150 -116 272 -225 372 -128 118 -266 180 -446 199 -111 12 -2517 11 -2628 -1z m2015 -184 c99 -21 202 -74 279 -144 84 -77 134 -153 172 -261 l31 -85 3 -1830 c2 -1243 -1 -1852 -8 -1898 -15 -99 -44 -172 -96 -249 -83 -123 -189 -203 -329 -250 l-70 -23 -967 -3 c-1071 -3 -1046 -4 -1183 62 -144 70 -265 204 -316 352 l-24 69 0 1895 0 1895 28 75 c36 99 106 200 181 263 69 57 197 121 271 135 29 6 447 10 1005 11 797 0 966 -2 1023 -14z m557 5 c0 -5 12 -10 28 -10 15 0 52 -7 82 -16 30 -9 66 -18 80 -21 13 -4 31 -12 38 -20 7 -7 20 -13 28 -13 8 0 14 -4 14 -10 0 -5 7 -10 15 -10 8 0 15 -4 15 -10 0 -5 8 -10 19 -10 10 0 21 -9 24 -21 3 -11 15 -23 26 -26 12 -3 21 -11 21 -18 0 -8 11 -22 25 -33 14 -11 25 -24 25 -29 0 -5 8 -18 18 -29 26 -28 71 -135 85 -199 6 -30 15 -55 19 -55 4 0 8 -832 8 -1850 0 -1017 -4 -1850 -8 -1850 -4 0 -13 -25 -19 -55 -14 -64 -59 -171 -85 -199 -10 -11 -18 -23 -18 -28 0 -13 -103 -109 -156 -145 -76 -51 -183 -85 -288 -91 l-88 -5 52 64 c95 118 149 240 170 384 14 100 14 3758 -1 3861 -21 149 -87 295 -183 400 l-48 54 51 0 c28 0 51 -4 51 -10z"
      ></path>
    </g>
  </g>
  <g fill="rgb(226,7,185)">
    <g>
      <path
        d="M2225 3881 c-46 -21 -101 -79 -112 -119 -5 -15 -8 -61 -8 -102 1 -82 16 -124 63 -167 l26 -24 -76 -77 c-84 -84 -108 -135 -108 -221 0 -170 125 -277 298 -257 74 9 106 27 189 109 l72 71 24 -26 c35 -37 77 -57 140 -64 83 -10 151 10 202 60 63 60 67 86 63 375 -3 283 -8 301 -97 384 -75 70 -110 77 -395 77 -211 0 -246 -3 -281 -19z m435 -201 c0 -5 15 -10 33 -10 37 0 57 -15 57 -42 0 -10 5 -18 10 -18 6 0 10 -13 10 -30 0 -16 5 -30 10 -30 16 0 13 -272 -4 -304 -18 -35 -26 -15 -26 62 0 39 -6 67 -20 90 -19 31 -22 32 -87 32 l-67 0 -153 -152 -153 -152 -22 22 -22 22 152 153 152 153 0 65 c0 83 -18 102 -105 107 -33 1 -71 5 -84 8 l-25 5 25 14 c29 16 319 21 319 5z"
      ></path>
      <path
        d="M2080 1883 c-19 -10 -67 -48 -106 -85 l-71 -68 -19 21 c-39 43 -88 59 -179 59 -55 0 -96 -5 -113 -14 -37 -19 -89 -75 -101 -109 -7 -17 -11 -130 -11 -291 0 -262 0 -262 26 -314 34 -68 103 -128 170 -148 43 -12 101 -15 308 -12 l254 3 43 30 c63 44 89 101 89 192 0 81 -13 121 -55 171 l-28 33 72 73 c87 90 101 121 101 224 0 100 -32 171 -98 217 -41 28 -51 30 -145 33 -82 2 -109 -1 -137 -15z m143 -258 c-5 -8 -73 -79 -151 -158 l-142 -143 0 -61 c0 -52 3 -61 20 -66 11 -3 20 -13 20 -22 0 -16 8 -17 75 -11 41 4 75 5 75 2 0 -2 3 -11 6 -20 5 -14 -13 -16 -165 -16 -186 0 -210 5 -250 56 -20 25 -21 39 -21 212 0 140 3 183 11 175 7 -7 14 -46 17 -87 3 -55 8 -76 18 -76 8 0 19 -9 26 -20 10 -16 24 -20 67 -20 l54 0 159 157 c156 154 159 156 174 135 9 -14 12 -27 7 -37z"
      ></path>
    </g>
  </g>
  <g fill="rgb(148,72,245)">
    <g>
      <path
        d="M3630 4964 c0 -4 33 -41 73 -83 119 -127 185 -264 207 -433 8 -58 10 -649 8 -1948 -3 -1753 -4 -1869 -21 -1924 -47 -156 -102 -251 -209 -360 l-68 -68 152 4 c134 4 162 8 227 31 40 14 97 41 125 60 57 39 150 126 159 151 4 9 11 16 17 16 6 0 8 5 5 10 -3 6 -1 10 4 10 6 0 11 7 11 15 0 8 5 15 11 15 5 0 7 5 4 10 -3 6 -1 10 5 10 6 0 8 5 5 10 -3 6 -1 10 5 10 6 0 8 5 5 10 -3 6 -1 10 5 10 7 0 10 7 6 15 -3 8 -1 15 5 15 6 0 9 7 5 15 -3 8 -1 15 5 15 6 0 8 9 4 20 -4 12 -2 20 5 20 8 0 10 9 6 25 -4 14 -2 25 4 25 7 0 10 610 10 1880 0 1270 -3 1880 -10 1880 -6 0 -8 11 -4 25 4 16 2 25 -6 25 -7 0 -9 8 -5 20 4 11 2 20 -4 20 -6 0 -8 7 -5 15 4 8 1 15 -5 15 -6 0 -8 7 -5 15 4 8 1 15 -6 15 -6 0 -8 5 -5 10 3 6 1 10 -5 10 -6 0 -8 5 -5 10 3 6 1 10 -5 10 -6 0 -8 5 -5 10 3 6 2 10 -4 10 -6 0 -8 7 -5 15 4 10 0 15 -11 15 -9 0 -14 4 -11 9 3 5 -1 11 -9 15 -8 3 -12 12 -9 21 4 9 1 15 -8 15 -16 0 -47 29 -47 44 0 5 -10 14 -23 20 -13 6 -23 18 -23 26 0 8 -10 16 -23 18 -12 2 -20 8 -17 13 4 5 -3 9 -15 9 -12 0 -18 5 -15 10 3 6 -3 10 -14 10 -11 0 -27 8 -36 17 -10 9 -27 18 -39 19 -37 4 -116 27 -116 34 0 3 -16 4 -35 2 -21 -3 -35 0 -35 7 0 7 -35 11 -105 11 -58 0 -105 -3 -105 -6z"
      ></path>
    </g>
  </g>
  <g fill="rgb(185,142,255)">
    <g>
      <path
        d="M1195 4958 c-74 -14 -202 -78 -271 -135 -75 -63 -145 -164 -181 -263 l-28 -75 0 -1925 0 -1925 24 -69 c51 -148 172 -282 316 -352 137 -66 108 -65 1213 -62 l997 3 70 23 c140 47 246 127 329 250 52 77 81 150 96 249 7 46 10 664 8 1928 l-3 1860 -31 85 c-16 47 -47 112 -68 143 -54 81 -157 172 -243 213 -135 65 -104 64 -1193 63 -577 -1 -1006 -5 -1035 -11z m2000 -719 c22 -6 51 -21 63 -32 55 -51 52 61 52 -1784 l0 -1708 -25 -38 c-49 -72 22 -67 -1052 -67 l-968 0 -39 32 c-21 17 -45 46 -52 64 -12 28 -14 311 -14 1721 0 1680 0 1687 20 1729 21 43 53 71 99 84 42 13 1869 12 1916 -1z"
      ></path>
    </g>
  </g>
  <g fill="rgb(255,99,237)">
    <g>
      <path
        d="M2315 3707 c-68 -40 -37 -87 58 -88 53 0 122 -15 92 -19 -5 -1 0 -5 13 -10 19 -8 22 -16 20 -49 -2 -37 -12 -51 -141 -178 -144 -143 -172 -181 -162 -213 8 -26 53 -60 78 -60 12 0 79 58 177 155 143 141 160 155 192 155 34 0 65 -20 51 -33 -3 -4 -1 -7 6 -7 7 0 9 -4 6 -10 -3 -5 -1 -10 4 -10 7 0 11 -26 11 -64 0 -45 5 -69 16 -80 26 -26 49 -19 72 21 16 30 17 363 1 363 -7 0 -8 11 -4 30 5 23 3 30 -9 30 -9 0 -13 6 -10 13 8 21 -34 51 -67 49 -16 -1 -29 2 -29 8 0 15 -349 12 -375 -3z"
      ></path>
      <path
        d="M2019 1563 c-165 -162 -198 -183 -226 -143 -8 11 -20 20 -26 20 -11 0 -17 42 -21 137 -1 15 -12 28 -31 37 -53 26 -55 16 -55 -219 0 -200 1 -214 21 -239 41 -52 61 -56 276 -56 149 1 202 4 216 14 23 18 22 31 -10 62 -25 25 -31 26 -94 22 -44 -4 -67 -2 -66 5 1 6 -7 15 -18 21 -13 7 -20 21 -20 41 0 25 23 54 140 174 77 79 145 149 152 156 7 7 9 15 6 19 -4 3 -1 6 5 6 7 0 12 9 12 20 0 11 -5 20 -11 20 -5 0 -8 4 -5 9 3 5 -1 12 -9 15 -8 3 -14 11 -13 18 2 8 -10 12 -32 13 -32 1 -48 -12 -191 -152z"
      ></path>
    </g>
  </g>
  <g fill="rgb(136,248,216)">
    <g>
      <path
        d="M1317 4093 c-4 -3 -7 -755 -7 -1670 l0 -1663 925 0 925 0 0 1670 0 1670 -918 0 c-505 0 -922 -3 -925 -7z m1452 -239 c65 -19 140 -85 173 -152 21 -44 23 -62 26 -263 4 -256 -1 -286 -63 -345 -91 -88 -230 -75 -302 28 l-26 39 -91 -89 c-122 -121 -169 -142 -268 -121 -40 9 -62 22 -103 63 -45 43 -55 60 -65 108 -11 49 -11 64 4 110 14 44 34 70 112 149 l95 95 -39 27 c-56 39 -87 99 -86 167 1 84 46 150 124 184 52 22 434 23 509 0z m-255 -1205 c36 -28 36 -80 0 -108 -25 -20 -39 -21 -281 -21 l-254 0 -26 26 c-20 20 -24 31 -19 57 12 65 20 67 301 67 240 0 254 -1 279 -21z m-711 -279 c48 -54 33 -131 -33 -165 -39 -20 -66 -19 -106 6 -47 29 -63 82 -39 133 35 73 124 86 178 26z m1030 0 c31 -35 37 -92 11 -128 -19 -27 -65 -52 -96 -52 -38 0 -85 35 -98 74 -37 113 103 195 183 106z m-501 -535 c83 -58 121 -181 83 -272 -8 -20 -57 -79 -108 -131 -56 -58 -87 -96 -79 -99 29 -11 72 -56 91 -96 43 -89 15 -194 -68 -252 l-43 -30 -224 -3 c-180 -3 -235 0 -277 12 -68 20 -137 79 -171 148 -26 51 -26 54 -26 284 0 140 4 244 11 261 12 34 64 90 101 109 15 8 53 14 85 14 71 0 127 -29 162 -83 l24 -37 91 88 c115 111 140 123 233 120 61 -3 78 -8 115 -33z"
      ></path>
    </g>
  </g>
</svg>
